<?xml version="1.0" encoding="UTF-8"?>
<!-- Generator: Adobe Illustrator 15.0.0, SVG Export Plug-In . SVG Version: 6.00 Build 0)  -->
<!DOCTYPE svg PUBLIC "-//W3C//DTD SVG 1.1//EN" "http://www.w3.org/Graphics/SVG/1.1/DTD/svg11.dtd">
<svg version="1.1" id="Ebene_1" xmlns="http://www.w3.org/2000/svg" xmlns:xlink="http://www.w3.org/1999/xlink" x="0px"
	y="0px" width="425.197px" height="1048.819px" viewBox="0 0 425.197 1048.819"
	enable-background="new 0 0 425.197 1048.819" xml:space="preserve">
	<g>
		<path fill="none" stroke="#000000" stroke-width="2"
			d="M85.174,424.027v150.855 M88.883,564.687l-3.709,10.195l-3.71-10.195    M84.843,424.834l69.081,65.885 M149.107,480.999l4.817,9.721l-9.938-4.351 M85.203,424.354L54.258,659.946 M51.907,649.354   l2.351,10.592l5.006-9.625" />

		<line fill="none" stroke="#000000" stroke-width="2" stroke-dasharray="0.9678,1.9678,11.9678,1.9678"
			stroke-dashoffset="2" x1="127.667" y1="599.606" x2="180.169" y2="796.14" />
		<polyline fill="none" stroke="#000000" stroke-width="2"
			points="173.954,787.247 180.169,796.14 181.122,785.333  " />

		<line fill="none" stroke="#000000" stroke-width="2" stroke-dasharray="1.3085,2.3085,12.3085,2.3085"
			stroke-dashoffset="3" x1="128.396" y1="598.917" x2="86.812" y2="660.423" />
		<path fill="none" stroke="#000000" stroke-width="2"
			d="M95.595,654.054l-8.783,6.369l2.636-10.523 M115.113,301.004   l-29.198,98.193 M85.265,388.369l0.65,10.829l6.462-8.714" />
		<path fill="none" stroke="#000000" stroke-width="3"
			d="M212.733,244.735v116.086 M217.442,347.877l-4.709,12.943l-4.71-12.943" />
		<line fill="none" stroke="#000000" stroke-width="2" x1="226.904" y1="95.575" x2="212.309" y2="224.27" />
		<path fill="none" stroke="#000000" stroke-width="3"
			d="M155.565,301.364l26.964,59.9 M181.511,347.529l1.018,13.735l-9.607-9.868    M212.733,882.899v36.346 M217.442,906.304l-4.709,12.941l-4.71-12.941 M141.053,94.941l71.558,129.367 M169.881,95.391   l42.137,128.493" />
		<path fill="none" stroke="#000000" stroke-width="2"
			d="M198.42,95.4l13.942,128.705 M283.855,95.431L213.213,224.81    M255.38,95.607l-42.662,128.545" />

		<line fill="none" stroke="#000000" stroke-width="2" stroke-dasharray="0.9256,1.9256,11.9256,1.9256"
			stroke-dashoffset="2" x1="331.819" y1="458.249" x2="234.193" y2="796.099" />
		<polyline fill="none" stroke="#000000" stroke-width="2"
			points="240.587,787.335 234.193,796.099 233.459,785.274  " />

		<line fill="none" stroke="#000000" stroke-width="2" stroke-dasharray="0.9932,1.9931,11.9932,1.9931"
			stroke-dashoffset="2" x1="126.189" y1="684.351" x2="169.164" y2="796.179" />
		<polyline fill="none" stroke="#000000" stroke-width="2"
			points="162.044,787.993 169.164,796.179 168.97,785.331  " />
		<path fill="none" stroke="#000000" stroke-width="2"
			d="M186.184,376.58c0,0-88.414,6.37-79.645,198.304 M109.779,564.53   l-3.24,10.354l-4.171-10.014" />

		<line fill="none" stroke="#000000" stroke-width="2" stroke-dasharray="0.9364,1.9364,11.9364,1.9364"
			stroke-dashoffset="2" x1="327.263" y1="571.788" x2="256.021" y2="796.12" />
		<polyline fill="none" stroke="#000000" stroke-width="2"
			points="262.643,787.528 256.021,796.12 255.571,785.282  " />
		<path fill="none" stroke="#000000" stroke-width="3"
			d="M186.571,244.001l-27.702,32.814 M170.817,269.964l-11.948,6.851   l4.75-12.928" />
		<polygon fill="#007452" points="326.118,53.396 326.118,76.073 382.811,76.073 382.811,53.396 326.118,53.396  " />
		<g>
			<path fill="#FFFFFF"
				d="M346.144,70.354c-1.279,0-2.282-0.432-3.01-1.295c-0.729-0.863-1.093-2.116-1.093-3.759    c0-0.821,0.094-1.544,0.28-2.17c0.187-0.625,0.457-1.152,0.813-1.582c0.354-0.429,0.786-0.753,1.295-0.973s1.08-0.329,1.715-0.329    c0.849,0,1.561,0.185,2.135,0.555c0.574,0.37,1.024,0.917,1.352,1.643l-1.33,0.728c-0.168-0.466-0.428-0.837-0.777-1.113    s-0.81-0.413-1.379-0.413c-0.756,0-1.349,0.258-1.778,0.773c-0.429,0.516-0.644,1.228-0.644,2.136v1.49    c0,0.909,0.215,1.621,0.644,2.136c0.43,0.516,1.022,0.773,1.778,0.773c0.588,0,1.066-0.152,1.435-0.455    c0.369-0.303,0.642-0.693,0.819-1.169l1.274,0.77c-0.327,0.708-0.784,1.261-1.372,1.658    C347.712,70.156,346.993,70.354,346.144,70.354z" />
			<path fill="#FFFFFF"
				d="M354.278,70.354c-0.821,0-1.519-0.149-2.093-0.448c-0.574-0.299-1.066-0.7-1.478-1.204l1.093-1.022    c0.345,0.42,0.726,0.737,1.141,0.952c0.415,0.215,0.889,0.322,1.421,0.322c0.625,0,1.097-0.14,1.414-0.42    c0.317-0.28,0.476-0.658,0.476-1.134c0-0.382-0.111-0.686-0.336-0.91c-0.224-0.224-0.62-0.392-1.189-0.504l-0.868-0.154    c-0.952-0.177-1.666-0.49-2.142-0.938c-0.477-0.448-0.715-1.064-0.715-1.848c0-0.429,0.082-0.819,0.245-1.169    s0.393-0.644,0.687-0.882c0.294-0.238,0.65-0.422,1.071-0.553c0.42-0.13,0.891-0.196,1.413-0.196c0.737,0,1.377,0.128,1.919,0.385    c0.541,0.257,1.003,0.628,1.386,1.113l-1.106,0.98c-0.252-0.327-0.56-0.588-0.924-0.784c-0.364-0.196-0.816-0.294-1.358-0.294    c-0.56,0-0.993,0.112-1.302,0.336c-0.308,0.224-0.462,0.551-0.462,0.98c0,0.411,0.126,0.716,0.378,0.917    c0.252,0.201,0.645,0.353,1.176,0.455l0.868,0.182c0.98,0.187,1.696,0.504,2.149,0.952c0.452,0.448,0.679,1.064,0.679,1.848    c0,0.458-0.079,0.873-0.238,1.246c-0.158,0.374-0.39,0.693-0.692,0.959c-0.304,0.266-0.675,0.472-1.113,0.616    S354.838,70.354,354.278,70.354z" />
		</g>
		<g>
			<path fill="#FFFFFF"
				d="M362.609,70.187v-1.288h1.33v-7.196h-1.33v-1.288h4.256v1.288h-1.344v7.196h1.344v1.288H362.609z" />
		</g>
		<polygon fill="#007452"
			points="297.772,132.767 297.772,155.444 382.811,155.444 382.811,132.767 297.772,132.767  " />
		<g>
			<path fill="#FFFFFF" d="M304.076,150.352v-11.168h6.976v1.6h-5.168v3.104h4.593v1.6h-4.593v4.864H304.076z" />
		</g>
		<g>
			<path fill="#FFFFFF"
				d="M318.536,150.352c-0.459,0-0.811-0.13-1.056-0.392c-0.245-0.261-0.395-0.594-0.448-1h-0.08    c-0.16,0.523-0.453,0.917-0.88,1.184s-0.944,0.4-1.552,0.4c-0.864,0-1.528-0.224-1.992-0.672c-0.464-0.448-0.696-1.05-0.696-1.808    c0-0.832,0.302-1.456,0.904-1.872s1.485-0.624,2.648-0.624h1.504v-0.704c0-0.512-0.139-0.907-0.416-1.184s-0.71-0.416-1.296-0.416    c-0.491,0-0.892,0.106-1.2,0.32c-0.31,0.213-0.571,0.485-0.784,0.816l-1.04-0.944c0.277-0.469,0.667-0.856,1.168-1.16    c0.501-0.304,1.157-0.456,1.968-0.456c1.077,0,1.904,0.251,2.48,0.752s0.864,1.221,0.864,2.16v4.176h0.88v1.424H318.536z     M315.016,149.215c0.544,0,0.992-0.12,1.344-0.36c0.352-0.24,0.528-0.563,0.528-0.968v-1.2h-1.473    c-1.205,0-1.808,0.374-1.808,1.12v0.288c0,0.374,0.125,0.653,0.376,0.84S314.579,149.215,315.016,149.215z" />
			<path fill="#FFFFFF"
				d="M323,150.352c-0.598,0-1.043-0.152-1.336-0.456c-0.294-0.304-0.44-0.728-0.44-1.272v-10.112h1.744v10.416    h1.151v1.424H323z" />
			<path fill="#FFFFFF"
				d="M328.423,150.543c-0.789,0-1.45-0.139-1.983-0.416c-0.534-0.277-0.998-0.661-1.393-1.152l1.12-1.024    c0.31,0.374,0.653,0.664,1.032,0.872s0.818,0.312,1.32,0.312c0.512,0,0.893-0.099,1.144-0.296    c0.251-0.197,0.376-0.472,0.376-0.824c0-0.267-0.088-0.493-0.264-0.68c-0.176-0.187-0.483-0.306-0.92-0.36l-0.769-0.096    c-0.854-0.106-1.522-0.354-2.008-0.744c-0.485-0.39-0.728-0.968-0.728-1.736c0-0.405,0.074-0.765,0.224-1.08    c0.149-0.314,0.36-0.581,0.632-0.8c0.272-0.218,0.598-0.386,0.977-0.504c0.378-0.117,0.797-0.176,1.256-0.176    c0.746,0,1.357,0.118,1.832,0.352c0.475,0.235,0.898,0.56,1.271,0.976l-1.072,1.024c-0.213-0.256-0.493-0.477-0.84-0.664    c-0.347-0.187-0.744-0.28-1.191-0.28c-0.48,0-0.835,0.096-1.064,0.288s-0.344,0.443-0.344,0.752c0,0.32,0.102,0.56,0.304,0.72    c0.203,0.16,0.528,0.278,0.977,0.352l0.768,0.096c0.917,0.139,1.587,0.408,2.008,0.808c0.422,0.4,0.632,0.936,0.632,1.608    c0,0.405-0.077,0.771-0.231,1.096c-0.155,0.325-0.376,0.605-0.664,0.84c-0.288,0.235-0.635,0.416-1.04,0.544    S328.925,150.543,328.423,150.543z" />
			<path fill="#FFFFFF"
				d="M336.952,150.543c-0.598,0-1.131-0.102-1.6-0.304c-0.47-0.203-0.869-0.494-1.2-0.872    s-0.584-0.837-0.76-1.376s-0.264-1.139-0.264-1.8c0-0.661,0.088-1.261,0.264-1.8s0.429-0.997,0.76-1.376    c0.331-0.378,0.73-0.669,1.2-0.872c0.469-0.203,1.002-0.304,1.6-0.304c0.608,0,1.145,0.107,1.608,0.32s0.851,0.509,1.16,0.888    c0.309,0.379,0.541,0.819,0.695,1.32c0.155,0.501,0.232,1.04,0.232,1.616v0.656h-5.712v0.27c0,0.636,0.189,1.158,0.568,1.566    c0.378,0.408,0.92,0.612,1.624,0.612c0.512,0,0.943-0.111,1.296-0.333c0.352-0.223,0.65-0.525,0.896-0.906l1.024,1.011    c-0.31,0.514-0.758,0.923-1.345,1.228C338.414,150.391,337.73,150.543,336.952,150.543z M336.952,143.2    c-0.299,0-0.573,0.053-0.823,0.16c-0.251,0.107-0.465,0.256-0.641,0.448s-0.312,0.421-0.408,0.688    c-0.096,0.267-0.144,0.56-0.144,0.88v0.112h3.872v-0.16c0-0.64-0.166-1.155-0.496-1.544    C337.981,143.395,337.528,143.2,336.952,143.2z" />
			<path fill="#FFFFFF"
				d="M342.583,150.352v-8.32h1.744v1.6h0.08c0.117-0.426,0.362-0.8,0.735-1.12    c0.374-0.32,0.891-0.48,1.553-0.48h0.464v1.68h-0.688c-0.693,0-1.224,0.112-1.592,0.336c-0.368,0.224-0.552,0.555-0.552,0.992    v5.312H342.583z" />
			<path fill="#FFFFFF"
				d="M352.135,150.352v-1.472h1.52v-8.224h-1.52v-1.472h4.863v1.472h-1.536v8.224h1.536v1.472H352.135z" />
			<path fill="#FFFFFF" d="M358.007,152.768l4.432-14.256h1.504l-4.432,14.256H358.007z" />
			<path fill="#FFFFFF"
				d="M365.463,150.352v-1.472h1.52v-8.224h-1.52v-1.472h4.863v1.472h-1.536v8.224h1.536v1.472H365.463z" />
			<path fill="#FFFFFF"
				d="M372.12,150.352v-1.472h1.52v-8.224h-1.52v-1.472h4.863v1.472h-1.536v8.224h1.536v1.472H372.12z" />
		</g>
		<polygon fill="#007452"
			points="184.386,223.475 184.386,246.153 241.08,246.153 241.08,223.475 184.386,223.475  " />
		<g>
			<path fill="#FFFFFF"
				d="M199.419,232.513h-0.08l-0.88,1.808l-2.448,4.464l-2.448-4.464l-0.88-1.808h-0.08v8.544h-1.728v-11.168    h2.144l2.992,5.68h0.096l2.992-5.68h2.049v11.168h-1.729V232.513z" />
			<path fill="#FFFFFF"
				d="M209.867,241.057c-0.459,0-0.811-0.13-1.056-0.392c-0.245-0.261-0.395-0.594-0.448-1h-0.08    c-0.16,0.523-0.453,0.917-0.88,1.184s-0.944,0.4-1.552,0.4c-0.864,0-1.528-0.224-1.992-0.672c-0.464-0.448-0.696-1.05-0.696-1.808    c0-0.832,0.302-1.456,0.904-1.872s1.485-0.624,2.648-0.624h1.504v-0.704c0-0.512-0.139-0.907-0.416-1.184s-0.71-0.416-1.296-0.416    c-0.491,0-0.892,0.106-1.2,0.32c-0.31,0.213-0.571,0.485-0.784,0.816l-1.04-0.944c0.277-0.469,0.667-0.856,1.168-1.16    c0.501-0.304,1.157-0.456,1.968-0.456c1.077,0,1.904,0.251,2.48,0.752s0.864,1.221,0.864,2.16v4.176h0.88v1.424H209.867z     M206.347,239.92c0.544,0,0.992-0.12,1.344-0.36c0.352-0.24,0.528-0.563,0.528-0.968v-1.2h-1.473c-1.205,0-1.808,0.374-1.808,1.12    v0.288c0,0.374,0.125,0.653,0.376,0.84S205.91,239.92,206.347,239.92z" />
			<path fill="#FFFFFF"
				d="M217.659,232.737h1.681l-3.504,9.968c-0.097,0.277-0.206,0.515-0.328,0.712    c-0.123,0.197-0.267,0.357-0.433,0.48c-0.165,0.123-0.365,0.213-0.6,0.272s-0.512,0.088-0.832,0.088h-1.008v-1.424h1.408    l0.479-1.408l-3.023-8.688h1.743l1.664,4.896l0.48,1.808h0.08l0.528-1.808L217.659,232.737z" />
			<path fill="#FFFFFF"
				d="M220.779,241.057v-8.32h1.744v1.6h0.08c0.117-0.426,0.362-0.8,0.735-1.12    c0.374-0.32,0.891-0.48,1.553-0.48h0.464v1.68h-0.688c-0.693,0-1.224,0.112-1.592,0.336c-0.368,0.224-0.552,0.555-0.552,0.992    v5.312H220.779z" />
		</g>
		<g>
			<path fill="#FFFFFF"
				d="M230.224,241.057v-1.472h1.52v-8.224h-1.52v-1.472h4.863v1.472h-1.536v8.224h1.536v1.472H230.224z" />
		</g>
		<polygon fill="#007452"
			points="113.52,280.167 113.52,302.845 198.559,302.845 198.559,280.167 113.52,280.167  " />
		<g>
			<path fill="#FFFFFF"
				d="M127.49,289.2h-0.08l-0.88,1.808l-2.448,4.464l-2.448-4.464l-0.88-1.808h-0.08v8.544h-1.728v-11.168h2.144    l2.992,5.68h0.096l2.992-5.68h2.048v11.168h-1.728V289.2z" />
			<path fill="#FFFFFF"
				d="M132.722,287.936c-0.363,0-0.626-0.085-0.792-0.256c-0.166-0.17-0.248-0.389-0.248-0.656v-0.272    c0-0.266,0.083-0.485,0.248-0.656c0.166-0.17,0.429-0.256,0.792-0.256s0.624,0.085,0.784,0.256c0.16,0.171,0.24,0.39,0.24,0.656    v0.272c0,0.267-0.08,0.486-0.24,0.656C133.346,287.851,133.084,287.936,132.722,287.936z M131.842,289.424h1.744v8.32h-1.744    V289.424z" />
			<path fill="#FFFFFF"
				d="M136.082,297.744v-8.32h1.744v1.376h0.08c0.182-0.448,0.456-0.821,0.824-1.12    c0.368-0.298,0.872-0.448,1.512-0.448c0.853,0,1.517,0.28,1.992,0.84s0.712,1.357,0.712,2.392v5.28h-1.744v-5.056    c0-1.301-0.523-1.952-1.568-1.952c-0.224,0-0.445,0.029-0.664,0.088c-0.219,0.059-0.414,0.146-0.584,0.264    c-0.17,0.117-0.307,0.267-0.408,0.448c-0.102,0.182-0.152,0.395-0.152,0.64v5.568H136.082z" />
			<path fill="#FFFFFF"
				d="M146.242,287.936c-0.363,0-0.626-0.085-0.792-0.256c-0.166-0.17-0.248-0.389-0.248-0.656v-0.272    c0-0.266,0.083-0.485,0.248-0.656c0.166-0.17,0.429-0.256,0.792-0.256s0.624,0.085,0.784,0.256c0.16,0.171,0.24,0.39,0.24,0.656    v0.272c0,0.267-0.08,0.486-0.24,0.656C146.866,287.851,146.604,287.936,146.242,287.936z M145.362,289.424h1.744v8.32h-1.744    V289.424z" />
			<path fill="#FFFFFF"
				d="M152.242,297.936c-0.79,0-1.451-0.139-1.984-0.416s-0.997-0.661-1.392-1.152l1.12-1.024    c0.31,0.374,0.653,0.664,1.032,0.872c0.378,0.208,0.818,0.312,1.32,0.312c0.512,0,0.894-0.099,1.144-0.296    c0.25-0.197,0.376-0.472,0.376-0.824c0-0.267-0.088-0.493-0.264-0.68c-0.176-0.187-0.483-0.306-0.92-0.36l-0.768-0.096    c-0.853-0.106-1.522-0.354-2.008-0.744c-0.485-0.39-0.728-0.968-0.728-1.736c0-0.405,0.075-0.765,0.224-1.08    c0.149-0.314,0.36-0.581,0.632-0.8c0.272-0.218,0.597-0.386,0.976-0.504c0.378-0.117,0.797-0.176,1.256-0.176    c0.747,0,1.357,0.118,1.832,0.352c0.475,0.235,0.898,0.56,1.272,0.976l-1.072,1.024c-0.213-0.256-0.494-0.477-0.84-0.664    c-0.347-0.187-0.744-0.28-1.192-0.28c-0.48,0-0.834,0.096-1.064,0.288s-0.344,0.443-0.344,0.752c0,0.32,0.101,0.56,0.304,0.72    c0.203,0.16,0.528,0.278,0.976,0.352l0.768,0.096c0.917,0.139,1.586,0.408,2.008,0.808s0.632,0.936,0.632,1.608    c0,0.405-0.078,0.771-0.232,1.096c-0.155,0.325-0.376,0.605-0.664,0.84c-0.288,0.235-0.635,0.416-1.04,0.544    C153.196,297.872,152.743,297.936,152.242,297.936z" />
			<path fill="#FFFFFF"
				d="M159.809,297.744c-0.608,0-1.066-0.157-1.376-0.472c-0.309-0.314-0.464-0.76-0.464-1.336v-5.088h-1.296    v-1.424h0.704c0.288,0,0.488-0.064,0.6-0.192c0.112-0.128,0.168-0.336,0.168-0.624v-1.456h1.568v2.272h1.744v1.424h-1.744v5.472    h1.616v1.424H159.809z" />
			<path fill="#FFFFFF"
				d="M166.609,297.936c-0.598,0-1.131-0.102-1.6-0.304c-0.47-0.203-0.87-0.494-1.2-0.872    s-0.584-0.837-0.76-1.376c-0.176-0.539-0.264-1.139-0.264-1.8c0-0.661,0.088-1.261,0.264-1.8c0.176-0.539,0.429-0.997,0.76-1.376    c0.331-0.378,0.73-0.669,1.2-0.872c0.469-0.203,1.002-0.304,1.6-0.304c0.608,0,1.144,0.107,1.608,0.32    c0.464,0.213,0.851,0.509,1.16,0.888c0.31,0.379,0.542,0.819,0.696,1.32c0.154,0.501,0.232,1.04,0.232,1.616v0.656h-5.712v0.27    c0,0.636,0.189,1.158,0.568,1.566c0.378,0.408,0.92,0.612,1.624,0.612c0.512,0,0.944-0.111,1.296-0.333    c0.352-0.223,0.65-0.525,0.896-0.906l1.024,1.011c-0.309,0.514-0.757,0.923-1.344,1.228    C168.07,297.784,167.388,297.936,166.609,297.936z M166.609,290.592c-0.299,0-0.574,0.053-0.824,0.16    c-0.251,0.107-0.464,0.256-0.64,0.448c-0.176,0.192-0.312,0.421-0.408,0.688c-0.096,0.267-0.144,0.56-0.144,0.88v0.112h3.872    v-0.16c0-0.64-0.166-1.155-0.496-1.544C167.638,290.787,167.185,290.592,166.609,290.592z" />
			<path fill="#FFFFFF"
				d="M172.241,297.744v-8.32h1.744v1.6h0.08c0.118-0.426,0.363-0.8,0.736-1.12    c0.373-0.32,0.891-0.48,1.552-0.48h0.464v1.68h-0.688c-0.694,0-1.224,0.112-1.592,0.336c-0.368,0.224-0.552,0.555-0.552,0.992    v5.312H172.241z" />
			<path fill="#FFFFFF"
				d="M179.249,287.936c-0.363,0-0.626-0.085-0.792-0.256c-0.166-0.17-0.248-0.389-0.248-0.656v-0.272    c0-0.266,0.083-0.485,0.248-0.656c0.166-0.17,0.429-0.256,0.792-0.256s0.624,0.085,0.784,0.256c0.16,0.171,0.24,0.39,0.24,0.656    v0.272c0,0.267-0.08,0.486-0.24,0.656C179.873,287.851,179.612,287.936,179.249,287.936z M178.369,289.424h1.744v8.32h-1.744    V289.424z" />
			<path fill="#FFFFFF"
				d="M188.705,297.744c-0.459,0-0.811-0.13-1.056-0.392c-0.246-0.261-0.395-0.594-0.448-1h-0.08    c-0.16,0.523-0.453,0.917-0.88,1.184s-0.944,0.4-1.552,0.4c-0.864,0-1.528-0.224-1.992-0.672c-0.464-0.448-0.696-1.05-0.696-1.808    c0-0.832,0.301-1.456,0.904-1.872s1.485-0.624,2.648-0.624h1.504v-0.704c0-0.512-0.139-0.907-0.416-1.184    s-0.709-0.416-1.296-0.416c-0.491,0-0.891,0.106-1.2,0.32c-0.31,0.213-0.571,0.485-0.784,0.816l-1.04-0.944    c0.277-0.469,0.667-0.856,1.168-1.16c0.501-0.304,1.157-0.456,1.968-0.456c1.077,0,1.904,0.251,2.48,0.752    c0.576,0.501,0.864,1.221,0.864,2.16v4.176h0.88v1.424H188.705z M185.185,296.608c0.544,0,0.992-0.12,1.344-0.36    c0.352-0.24,0.528-0.563,0.528-0.968v-1.2h-1.472c-1.206,0-1.808,0.374-1.808,1.12v0.288c0,0.374,0.125,0.653,0.376,0.84    C184.403,296.515,184.748,296.608,185.185,296.608z" />
			<path fill="#FFFFFF"
				d="M193.169,297.744c-0.598,0-1.042-0.152-1.336-0.456c-0.293-0.304-0.44-0.728-0.44-1.272v-10.112h1.744    v10.416h1.152v1.424H193.169z" />
		</g>
		<polygon fill="#007452"
			points="42.654,402.058 42.654,424.735 127.693,424.735 127.693,402.058 42.654,402.058  " />
		<g>
			<path fill="#FFFFFF"
				d="M46.576,408.459h3.952c0.714,0,1.362,0.118,1.944,0.352c0.581,0.235,1.077,0.584,1.488,1.048    s0.728,1.045,0.952,1.744s0.336,1.512,0.336,2.44s-0.112,1.742-0.336,2.44c-0.224,0.699-0.542,1.28-0.952,1.744    s-0.907,0.813-1.488,1.048c-0.582,0.235-1.229,0.352-1.944,0.352h-3.952V408.459z M50.528,418.027    c0.832,0,1.504-0.261,2.016-0.784c0.512-0.523,0.768-1.291,0.768-2.304v-1.792c0-1.013-0.256-1.781-0.768-2.304    c-0.512-0.522-1.184-0.784-2.016-0.784h-2.144v7.968H50.528z" />
			<path fill="#FFFFFF"
				d="M63.472,419.627c-0.459,0-0.811-0.13-1.056-0.392c-0.246-0.261-0.395-0.594-0.448-1h-0.08    c-0.16,0.523-0.453,0.917-0.88,1.184s-0.944,0.4-1.552,0.4c-0.864,0-1.528-0.224-1.992-0.672c-0.464-0.448-0.696-1.05-0.696-1.808    c0-0.832,0.301-1.456,0.904-1.872s1.485-0.624,2.648-0.624h1.504v-0.704c0-0.512-0.139-0.907-0.416-1.184    s-0.709-0.416-1.296-0.416c-0.491,0-0.891,0.106-1.2,0.32c-0.31,0.213-0.571,0.485-0.784,0.816l-1.04-0.944    c0.277-0.469,0.667-0.856,1.168-1.16c0.501-0.304,1.157-0.456,1.968-0.456c1.077,0,1.904,0.251,2.48,0.752    c0.576,0.501,0.864,1.221,0.864,2.16v4.176h0.88v1.424H63.472z M59.952,418.491c0.544,0,0.992-0.12,1.344-0.36    c0.352-0.24,0.528-0.563,0.528-0.968v-1.2h-1.472c-1.206,0-1.808,0.374-1.808,1.12v0.288c0,0.374,0.125,0.653,0.376,0.84    C59.17,418.397,59.514,418.491,59.952,418.491z" />
			<path fill="#FFFFFF"
				d="M66.16,419.627v-8.32h1.744v1.376h0.08c0.182-0.448,0.456-0.821,0.824-1.12    c0.368-0.298,0.872-0.448,1.512-0.448c0.853,0,1.517,0.28,1.992,0.84s0.712,1.357,0.712,2.392v5.28H71.28v-5.056    c0-1.301-0.523-1.952-1.568-1.952c-0.224,0-0.445,0.029-0.664,0.088c-0.219,0.059-0.414,0.146-0.584,0.264    c-0.17,0.117-0.307,0.267-0.408,0.448c-0.102,0.182-0.152,0.395-0.152,0.64v5.568H66.16z" />
			<path fill="#FFFFFF"
				d="M75.439,419.627v-8.32h1.744v1.376h0.08c0.182-0.448,0.456-0.821,0.824-1.12    c0.368-0.298,0.872-0.448,1.512-0.448c0.853,0,1.517,0.28,1.992,0.84s0.712,1.357,0.712,2.392v5.28H80.56v-5.056    c0-1.301-0.523-1.952-1.568-1.952c-0.224,0-0.445,0.029-0.664,0.088c-0.219,0.059-0.414,0.146-0.584,0.264    c-0.17,0.117-0.307,0.267-0.408,0.448c-0.102,0.182-0.152,0.395-0.152,0.64v5.568H75.439z" />
			<path fill="#FFFFFF"
				d="M87.983,419.819c-0.598,0-1.131-0.102-1.6-0.304c-0.47-0.203-0.87-0.494-1.2-0.872    s-0.584-0.837-0.76-1.376c-0.176-0.539-0.264-1.139-0.264-1.8c0-0.661,0.088-1.261,0.264-1.8c0.176-0.539,0.429-0.997,0.76-1.376    c0.331-0.378,0.73-0.669,1.2-0.872c0.469-0.203,1.002-0.304,1.6-0.304c0.608,0,1.144,0.107,1.608,0.32    c0.464,0.213,0.851,0.509,1.16,0.888c0.31,0.379,0.542,0.819,0.696,1.32c0.154,0.501,0.232,1.04,0.232,1.616v0.656h-5.712v0.27    c0,0.636,0.189,1.158,0.568,1.566c0.378,0.408,0.92,0.612,1.624,0.612c0.512,0,0.944-0.111,1.296-0.333    c0.352-0.223,0.65-0.525,0.896-0.906l1.024,1.011c-0.309,0.514-0.757,0.923-1.344,1.228    C89.444,419.667,88.762,419.819,87.983,419.819z M87.983,412.475c-0.299,0-0.574,0.053-0.824,0.16    c-0.251,0.107-0.464,0.256-0.64,0.448c-0.176,0.192-0.312,0.421-0.408,0.688c-0.096,0.267-0.144,0.56-0.144,0.88v0.112h3.872    v-0.16c0-0.64-0.166-1.155-0.496-1.544C89.012,412.67,88.559,412.475,87.983,412.475z" />
			<path fill="#FFFFFF"
				d="M93.615,407.787h1.744v4.896h0.08c0.182-0.501,0.478-0.888,0.888-1.16s0.893-0.408,1.448-0.408    c1.056,0,1.872,0.382,2.448,1.144c0.576,0.763,0.864,1.832,0.864,3.208s-0.288,2.446-0.864,3.208    c-0.576,0.763-1.392,1.144-2.448,1.144c-0.555,0-1.038-0.139-1.448-0.416s-0.707-0.661-0.888-1.152h-0.08v1.376h-1.744V407.787z     M97.247,418.315c0.608,0,1.093-0.194,1.456-0.584c0.363-0.389,0.544-0.904,0.544-1.544v-1.44c0-0.64-0.181-1.155-0.544-1.544    c-0.363-0.39-0.848-0.584-1.456-0.584c-0.533,0-0.981,0.13-1.344,0.392c-0.363,0.262-0.544,0.605-0.544,1.032v2.848    c0,0.427,0.181,0.771,0.544,1.032C96.266,418.185,96.714,418.315,97.247,418.315z" />
			<path fill="#FFFFFF"
				d="M106.352,419.819c-0.598,0-1.131-0.102-1.6-0.304c-0.47-0.203-0.87-0.494-1.2-0.872    s-0.584-0.837-0.76-1.376c-0.176-0.539-0.264-1.139-0.264-1.8c0-0.661,0.088-1.261,0.264-1.8c0.176-0.539,0.429-0.997,0.76-1.376    c0.331-0.378,0.73-0.669,1.2-0.872c0.469-0.203,1.002-0.304,1.6-0.304c0.608,0,1.144,0.107,1.608,0.32    c0.464,0.213,0.851,0.509,1.16,0.888c0.31,0.379,0.542,0.819,0.696,1.32c0.154,0.501,0.232,1.04,0.232,1.616v0.656h-5.712v0.27    c0,0.636,0.189,1.158,0.568,1.566c0.378,0.408,0.92,0.612,1.624,0.612c0.512,0,0.944-0.111,1.296-0.333    c0.352-0.223,0.65-0.525,0.896-0.906l1.024,1.011c-0.309,0.514-0.757,0.923-1.344,1.228    C107.813,419.667,107.13,419.819,106.352,419.819z M106.352,412.475c-0.299,0-0.574,0.053-0.824,0.16    c-0.251,0.107-0.464,0.256-0.64,0.448c-0.176,0.192-0.312,0.421-0.408,0.688c-0.096,0.267-0.144,0.56-0.144,0.88v0.112h3.872    v-0.16c0-0.64-0.166-1.155-0.496-1.544C107.38,412.67,106.927,412.475,106.352,412.475z" />
			<path fill="#FFFFFF"
				d="M111.983,419.627v-8.32h1.744v1.6h0.08c0.118-0.426,0.363-0.8,0.736-1.12    c0.373-0.32,0.891-0.48,1.552-0.48h0.464v1.68h-0.688c-0.694,0-1.224,0.112-1.592,0.336c-0.368,0.224-0.552,0.555-0.552,0.992    v5.312H111.983z" />
		</g>
		<g>
			<path fill="#FFFFFF"
				d="M125.106,420.411c0,0.864-0.331,1.514-0.992,1.952c-0.661,0.438-1.738,0.656-3.232,0.656    c-0.683,0-1.261-0.045-1.736-0.136s-0.864-0.221-1.168-0.392c-0.304-0.17-0.525-0.378-0.664-0.624    c-0.139-0.246-0.208-0.528-0.208-0.848c0-0.459,0.125-0.816,0.376-1.072c0.25-0.256,0.6-0.432,1.048-0.528v-0.176    c-0.629-0.203-0.944-0.629-0.944-1.28c0-0.426,0.144-0.754,0.432-0.984s0.634-0.392,1.04-0.488v-0.064    c-0.491-0.234-0.867-0.563-1.128-0.984c-0.262-0.421-0.392-0.915-0.392-1.48c0-0.853,0.285-1.541,0.856-2.064    c0.57-0.522,1.389-0.784,2.456-0.784c0.586,0,1.088,0.086,1.504,0.256v-0.224c0-0.373,0.088-0.664,0.264-0.872    c0.176-0.208,0.45-0.312,0.824-0.312h1.28v1.408h-1.696v0.336c0.374,0.246,0.662,0.563,0.864,0.952    c0.202,0.389,0.304,0.824,0.304,1.304c0,0.843-0.288,1.523-0.864,2.04c-0.576,0.518-1.397,0.776-2.464,0.776    c-0.406,0-0.768-0.042-1.088-0.128c-0.213,0.075-0.4,0.179-0.56,0.312c-0.16,0.134-0.24,0.307-0.24,0.52    c0,0.224,0.101,0.384,0.304,0.48c0.202,0.096,0.49,0.144,0.864,0.144h2.048c1.024,0,1.766,0.206,2.224,0.616    S125.106,419.696,125.106,420.411z M123.474,420.603c0-0.288-0.109-0.518-0.328-0.688c-0.219-0.171-0.616-0.256-1.192-0.256    h-2.816c-0.384,0.224-0.576,0.544-0.576,0.96c0,0.341,0.136,0.616,0.408,0.824s0.733,0.312,1.384,0.312h1.088    C122.796,421.755,123.474,421.371,123.474,420.603z M120.866,415.515c0.512,0,0.909-0.115,1.192-0.344    c0.282-0.229,0.424-0.584,0.424-1.064v-0.32c0-0.48-0.142-0.834-0.424-1.064c-0.283-0.229-0.68-0.344-1.192-0.344    c-0.512,0-0.91,0.115-1.192,0.344s-0.424,0.584-0.424,1.064v0.32c0,0.48,0.141,0.835,0.424,1.064    C119.957,415.4,120.354,415.515,120.866,415.515z" />
		</g>
		<polygon fill="#007452"
			points="113.52,492.767 113.52,515.443 198.559,515.443 198.559,492.767 113.52,492.767  " />
		<g>
			<path fill="#FFFFFF"
				d="M117.927,510.352v-11.168h7.152v1.6h-5.344v3.104h4.848v1.6h-4.848v3.264h5.344v1.6H117.927z" />
			<path fill="#FFFFFF"
				d="M129.095,510.352l-2.832-8.32h1.728l1.264,3.792l0.848,2.912h0.096l0.848-2.912l1.296-3.792h1.664    l-2.864,8.32H129.095z" />
			<path fill="#FFFFFF"
				d="M136.359,500.543c-0.363,0-0.626-0.085-0.792-0.256c-0.166-0.17-0.248-0.389-0.248-0.656v-0.272    c0-0.266,0.083-0.485,0.248-0.656c0.166-0.17,0.429-0.256,0.792-0.256s0.624,0.085,0.784,0.256c0.16,0.171,0.24,0.39,0.24,0.656    v0.272c0,0.267-0.08,0.486-0.24,0.656C136.983,500.458,136.722,500.543,136.359,500.543z M135.479,502.032h1.744v8.32h-1.744    V502.032z" />
			<path fill="#FFFFFF"
				d="M144.951,508.976h-0.08c-0.182,0.491-0.478,0.875-0.888,1.152c-0.411,0.277-0.894,0.416-1.448,0.416    c-1.056,0-1.872-0.381-2.448-1.144c-0.576-0.762-0.864-1.832-0.864-3.208s0.288-2.445,0.864-3.208    c0.576-0.762,1.392-1.144,2.448-1.144c0.555,0,1.037,0.136,1.448,0.408c0.41,0.272,0.706,0.659,0.888,1.16h0.08v-4.896h1.744    v11.84h-1.744V508.976z M143.063,509.04c0.534,0,0.981-0.13,1.344-0.392c0.362-0.261,0.544-0.605,0.544-1.032v-2.848    c0-0.427-0.182-0.771-0.544-1.032c-0.363-0.261-0.811-0.392-1.344-0.392c-0.608,0-1.093,0.194-1.456,0.584    c-0.363,0.389-0.544,0.904-0.544,1.544v1.44c0,0.64,0.182,1.155,0.544,1.544C141.97,508.845,142.455,509.04,143.063,509.04z" />
			<path fill="#FFFFFF"
				d="M152.455,510.543c-0.598,0-1.131-0.102-1.6-0.304c-0.47-0.203-0.87-0.494-1.2-0.872    s-0.584-0.837-0.76-1.376c-0.176-0.539-0.264-1.139-0.264-1.8c0-0.661,0.088-1.261,0.264-1.8c0.176-0.539,0.429-0.997,0.76-1.376    c0.331-0.378,0.73-0.669,1.2-0.872c0.469-0.203,1.002-0.304,1.6-0.304c0.608,0,1.144,0.107,1.608,0.32    c0.464,0.213,0.851,0.509,1.16,0.888c0.31,0.379,0.542,0.819,0.696,1.32c0.154,0.501,0.232,1.04,0.232,1.616v0.656h-5.712v0.27    c0,0.636,0.189,1.158,0.568,1.566c0.378,0.408,0.92,0.612,1.624,0.612c0.512,0,0.944-0.111,1.296-0.333    c0.352-0.223,0.65-0.525,0.896-0.906l1.024,1.011c-0.309,0.514-0.757,0.923-1.344,1.228    C153.916,510.391,153.233,510.543,152.455,510.543z M152.455,503.2c-0.299,0-0.574,0.053-0.824,0.16    c-0.251,0.107-0.464,0.256-0.64,0.448c-0.176,0.192-0.312,0.421-0.408,0.688c-0.096,0.267-0.144,0.56-0.144,0.88v0.112h3.872    v-0.16c0-0.64-0.166-1.155-0.496-1.544C153.484,503.395,153.031,503.2,152.455,503.2z" />
			<path fill="#FFFFFF"
				d="M158.087,510.352v-8.32h1.744v1.376h0.08c0.182-0.448,0.456-0.821,0.824-1.12    c0.368-0.298,0.872-0.448,1.512-0.448c0.853,0,1.517,0.28,1.992,0.84s0.712,1.357,0.712,2.392v5.28h-1.744v-5.056    c0-1.301-0.523-1.952-1.568-1.952c-0.224,0-0.445,0.029-0.664,0.088c-0.219,0.059-0.414,0.146-0.584,0.264    c-0.17,0.117-0.307,0.267-0.408,0.448c-0.102,0.182-0.152,0.395-0.152,0.64v5.568H158.087z" />
			<path fill="#FFFFFF"
				d="M166.695,510.352v-1.408l4.464-5.488h-4.32v-1.424h6.384v1.344l-4.528,5.552h4.64v1.424H166.695z" />
		</g>
		<g>
			<path fill="#FFFFFF"
				d="M178.243,510.543c-0.598,0-1.131-0.102-1.6-0.304c-0.47-0.203-0.87-0.494-1.2-0.872    s-0.584-0.837-0.76-1.376c-0.176-0.539-0.264-1.139-0.264-1.8c0-0.661,0.088-1.261,0.264-1.8c0.176-0.539,0.429-0.997,0.76-1.376    c0.331-0.378,0.73-0.669,1.2-0.872c0.469-0.203,1.002-0.304,1.6-0.304c0.608,0,1.144,0.107,1.608,0.32    c0.464,0.213,0.851,0.509,1.16,0.888c0.31,0.379,0.542,0.819,0.696,1.32c0.154,0.501,0.232,1.04,0.232,1.616v0.656h-5.712v0.27    c0,0.636,0.189,1.158,0.568,1.566c0.378,0.408,0.92,0.612,1.624,0.612c0.512,0,0.944-0.111,1.296-0.333    c0.352-0.223,0.65-0.525,0.896-0.906l1.024,1.011c-0.309,0.514-0.757,0.923-1.344,1.228    C179.704,510.391,179.021,510.543,178.243,510.543z M178.243,503.2c-0.299,0-0.574,0.053-0.824,0.16    c-0.251,0.107-0.464,0.256-0.64,0.448c-0.176,0.192-0.312,0.421-0.408,0.688c-0.096,0.267-0.144,0.56-0.144,0.88v0.112h3.872    v-0.16c0-0.64-0.166-1.155-0.496-1.544C179.272,503.395,178.819,503.2,178.243,503.2z" />
			<path fill="#FFFFFF"
				d="M182.723,510.352l2.928-4.208l-2.848-4.112h2.016l1.872,2.896h0.048l1.92-2.896h1.856l-2.848,4.096    l2.896,4.224h-2.016l-1.92-3.024h-0.048l-2,3.024H182.723z" />
		</g>
		<g>
			<path fill="#FFFFFF"
				d="M193.21,510.543c-0.395,0-0.688-0.104-0.88-0.312s-0.288-0.466-0.288-0.776v-0.24    c0-0.309,0.096-0.568,0.288-0.776s0.485-0.312,0.88-0.312s0.688,0.104,0.88,0.312c0.192,0.208,0.288,0.467,0.288,0.776v0.24    c0,0.31-0.096,0.568-0.288,0.776C193.898,510.439,193.604,510.543,193.21,510.543z" />
		</g>
		<path fill="none" stroke="#000000" stroke-width="3"
			d="M212.733,386.779v407.8 M217.442,781.636l-4.709,12.943l-4.71-12.943" />
		<polygon fill="#007452"
			points="280.764,436.074 280.764,458.75 382.811,458.75 382.811,436.074 280.764,436.074  " />
		<g>
			<path fill="#FFFFFF"
				d="M292.494,451.969h-0.063c-0.117,0.54-0.435,0.987-0.952,1.341s-1.203,0.532-2.056,0.532    c-0.662,0-1.275-0.125-1.84-0.376c-0.566-0.25-1.054-0.619-1.465-1.104c-0.41-0.485-0.73-1.088-0.96-1.808    c-0.229-0.72-0.344-1.549-0.344-2.488c0-0.928,0.117-1.752,0.353-2.472c0.234-0.72,0.564-1.325,0.991-1.816    c0.427-0.49,0.938-0.861,1.536-1.112s1.265-0.376,2-0.376c1.003,0,1.851,0.221,2.544,0.663c0.693,0.441,1.232,1.056,1.616,1.843    l-1.472,0.862c-0.214-0.524-0.544-0.95-0.992-1.277c-0.448-0.327-1.014-0.49-1.696-0.49c-0.886,0-1.598,0.284-2.136,0.851    c-0.539,0.567-0.808,1.371-0.808,2.409v1.831c0,1.039,0.269,1.842,0.808,2.409c0.538,0.567,1.25,0.851,2.136,0.851    c0.353,0,0.688-0.045,1.008-0.137c0.32-0.091,0.601-0.225,0.841-0.402c0.239-0.177,0.432-0.396,0.575-0.66    c0.145-0.263,0.217-0.571,0.217-0.925v-0.869h-2.305v-1.552h4.048v5.952h-1.584V451.969z" />
			<path fill="#FFFFFF"
				d="M296.446,453.65v-8.32h1.744v1.6h0.08c0.117-0.426,0.362-0.8,0.735-1.12c0.374-0.32,0.891-0.48,1.553-0.48    h0.464v1.68h-0.688c-0.693,0-1.224,0.112-1.592,0.336c-0.368,0.224-0.552,0.555-0.552,0.992v5.312H296.446z" />
			<path fill="#FFFFFF"
				d="M305.822,453.842c-0.576,0-1.102-0.102-1.576-0.304c-0.475-0.203-0.877-0.494-1.208-0.872    c-0.33-0.378-0.586-0.837-0.768-1.376s-0.271-1.139-0.271-1.8c0-0.661,0.09-1.261,0.271-1.8s0.438-0.997,0.768-1.376    c0.331-0.378,0.733-0.669,1.208-0.872s1-0.304,1.576-0.304s1.102,0.102,1.576,0.304s0.877,0.494,1.208,0.872    c0.331,0.379,0.587,0.837,0.769,1.376c0.181,0.539,0.271,1.139,0.271,1.8c0,0.662-0.091,1.262-0.271,1.8    c-0.182,0.539-0.438,0.998-0.769,1.376s-0.733,0.669-1.208,0.872C306.923,453.741,306.398,453.842,305.822,453.842z     M305.822,452.386c0.598,0,1.077-0.183,1.44-0.549c0.362-0.366,0.544-0.915,0.544-1.647v-1.4c0-0.731-0.182-1.281-0.544-1.646    c-0.363-0.366-0.843-0.549-1.44-0.549s-1.077,0.183-1.439,0.549c-0.363,0.366-0.544,0.915-0.544,1.646v1.4    c0,0.732,0.181,1.281,0.544,1.647C304.745,452.204,305.224,452.386,305.822,452.386z" />
			<path fill="#FFFFFF"
				d="M320.494,451.106c0,0.427-0.072,0.808-0.216,1.144s-0.344,0.622-0.6,0.856    c-0.257,0.235-0.568,0.416-0.937,0.544s-0.775,0.192-1.224,0.192c-0.662,0-1.229-0.109-1.704-0.328    c-0.475-0.218-0.872-0.536-1.192-0.952l1.057-1.024c0.512,0.619,1.136,0.928,1.872,0.928c0.405,0,0.725-0.099,0.96-0.296    c0.234-0.197,0.352-0.482,0.352-0.856c0-0.309-0.08-0.557-0.24-0.744c-0.16-0.187-0.442-0.333-0.848-0.44l-0.496-0.128    c-0.31-0.085-0.592-0.189-0.848-0.312s-0.478-0.274-0.664-0.456c-0.187-0.181-0.334-0.402-0.44-0.664    c-0.106-0.261-0.16-0.568-0.16-0.92c0-0.693,0.232-1.245,0.696-1.656s1.096-0.659,1.896-0.744v-0.064    c0-1.461-0.673-2.192-2.017-2.192c-1.333,0-2,0.73-2,2.192v8.464h-1.744v-6.896h-1.264v-1.424h1.264v-0.064    c0-1.131,0.331-2.021,0.992-2.672c0.661-0.65,1.573-0.976,2.736-0.976c0.565,0,1.074,0.086,1.527,0.256    c0.454,0.17,0.841,0.411,1.16,0.72c0.32,0.31,0.565,0.691,0.736,1.144c0.171,0.454,0.256,0.958,0.256,1.512v1.216h-0.815    c-0.598,0-1.046,0.08-1.345,0.24c-0.299,0.16-0.447,0.432-0.447,0.816c0,0.341,0.098,0.587,0.296,0.736    c0.197,0.149,0.482,0.278,0.855,0.384l0.48,0.144c0.704,0.181,1.224,0.453,1.56,0.816S320.494,450.466,320.494,451.106z" />
			<path fill="#FFFFFF"
				d="M327.374,452.274h-0.08c-0.182,0.491-0.478,0.875-0.889,1.152c-0.41,0.277-0.894,0.416-1.447,0.416    c-1.057,0-1.872-0.381-2.448-1.144c-0.576-0.762-0.864-1.832-0.864-3.208s0.288-2.445,0.864-3.208    c0.576-0.762,1.392-1.144,2.448-1.144c0.554,0,1.037,0.136,1.447,0.408c0.411,0.272,0.707,0.659,0.889,1.16h0.08v-4.896h1.743    v11.84h-1.743V452.274z M325.485,452.338c0.533,0,0.981-0.13,1.344-0.392c0.363-0.261,0.545-0.605,0.545-1.032v-2.848    c0-0.427-0.182-0.771-0.545-1.032c-0.362-0.261-0.811-0.392-1.344-0.392c-0.607,0-1.094,0.194-1.456,0.584    c-0.362,0.389-0.544,0.904-0.544,1.544v1.44c0,0.64,0.182,1.155,0.544,1.544C324.391,452.144,324.877,452.338,325.485,452.338z" />
			<path fill="#FFFFFF"
				d="M334.861,453.842c-0.598,0-1.131-0.102-1.6-0.304c-0.47-0.203-0.869-0.494-1.2-0.872    s-0.584-0.837-0.76-1.376s-0.264-1.139-0.264-1.8c0-0.661,0.088-1.261,0.264-1.8s0.429-0.997,0.76-1.376    c0.331-0.378,0.73-0.669,1.2-0.872c0.469-0.203,1.002-0.304,1.6-0.304c0.608,0,1.145,0.107,1.608,0.32s0.851,0.509,1.16,0.888    c0.309,0.379,0.541,0.819,0.695,1.32c0.155,0.501,0.232,1.04,0.232,1.616v0.656h-5.712v0.27c0,0.636,0.189,1.158,0.568,1.566    c0.378,0.408,0.92,0.612,1.624,0.612c0.512,0,0.943-0.111,1.296-0.333c0.352-0.223,0.65-0.525,0.896-0.906l1.024,1.011    c-0.31,0.514-0.758,0.923-1.345,1.228C336.323,453.69,335.639,453.842,334.861,453.842z M334.861,446.499    c-0.299,0-0.573,0.053-0.823,0.16c-0.251,0.107-0.465,0.256-0.641,0.448s-0.312,0.421-0.408,0.688    c-0.096,0.267-0.144,0.56-0.144,0.88v0.112h3.872v-0.16c0-0.64-0.166-1.155-0.496-1.544    C335.89,446.693,335.437,446.499,334.861,446.499z" />
			<path fill="#FFFFFF"
				d="M345.517,452.274h-0.064c-0.074,0.203-0.173,0.4-0.296,0.592c-0.122,0.192-0.277,0.36-0.464,0.504    c-0.187,0.144-0.41,0.258-0.672,0.344s-0.563,0.128-0.904,0.128c-0.863,0-1.533-0.277-2.008-0.832    c-0.475-0.554-0.712-1.349-0.712-2.384v-5.296h1.744v5.072c0,1.291,0.533,1.936,1.6,1.936c0.225,0,0.442-0.029,0.656-0.088    c0.213-0.059,0.402-0.146,0.568-0.264c0.165-0.117,0.298-0.267,0.399-0.448c0.102-0.182,0.152-0.395,0.152-0.64v-5.568h1.744v8.32    h-1.744V452.274z" />
			<path fill="#FFFFFF"
				d="M352.045,453.65c-0.607,0-1.066-0.157-1.376-0.472c-0.31-0.314-0.464-0.76-0.464-1.336v-5.088h-1.296    v-1.424h0.704c0.288,0,0.488-0.064,0.6-0.192c0.112-0.128,0.168-0.336,0.168-0.624v-1.456h1.568v2.272h1.744v1.424h-1.744v5.472    h1.616v1.424H352.045z" />
			<path fill="#FFFFFF"
				d="M358.205,453.842c-0.789,0-1.45-0.139-1.983-0.416c-0.534-0.277-0.998-0.661-1.393-1.152l1.12-1.024    c0.31,0.374,0.653,0.664,1.032,0.872s0.818,0.312,1.32,0.312c0.512,0,0.893-0.099,1.144-0.296    c0.251-0.197,0.376-0.472,0.376-0.824c0-0.267-0.088-0.493-0.264-0.68c-0.176-0.187-0.483-0.306-0.92-0.36l-0.769-0.096    c-0.854-0.106-1.522-0.354-2.008-0.744c-0.485-0.39-0.728-0.968-0.728-1.736c0-0.405,0.074-0.765,0.224-1.08    c0.149-0.314,0.36-0.581,0.632-0.8c0.272-0.218,0.598-0.386,0.977-0.504c0.378-0.117,0.797-0.176,1.256-0.176    c0.746,0,1.357,0.118,1.832,0.352c0.475,0.235,0.898,0.56,1.271,0.976l-1.072,1.024c-0.213-0.256-0.493-0.477-0.84-0.664    c-0.347-0.187-0.744-0.28-1.191-0.28c-0.48,0-0.835,0.096-1.064,0.288s-0.344,0.443-0.344,0.752c0,0.32,0.102,0.56,0.304,0.72    c0.203,0.16,0.528,0.278,0.977,0.352l0.768,0.096c0.917,0.139,1.587,0.408,2.008,0.808c0.422,0.4,0.632,0.936,0.632,1.608    c0,0.405-0.077,0.771-0.231,1.096c-0.155,0.325-0.376,0.605-0.664,0.84c-0.288,0.235-0.635,0.416-1.04,0.544    S358.707,453.842,358.205,453.842z" />
			<path fill="#FFFFFF"
				d="M366.668,453.842c-0.598,0-1.131-0.102-1.6-0.304c-0.47-0.203-0.864-0.494-1.185-0.872    c-0.319-0.378-0.565-0.837-0.735-1.376c-0.171-0.539-0.256-1.139-0.256-1.8c0-0.661,0.085-1.261,0.256-1.8    c0.17-0.539,0.416-0.997,0.735-1.376c0.32-0.378,0.715-0.669,1.185-0.872c0.469-0.203,1.002-0.304,1.6-0.304    c0.832,0,1.515,0.187,2.048,0.56c0.533,0.374,0.923,0.87,1.168,1.488l-1.439,0.672c-0.118-0.384-0.323-0.69-0.616-0.92    c-0.294-0.229-0.68-0.344-1.16-0.344c-0.64,0-1.123,0.2-1.448,0.599s-0.487,0.917-0.487,1.556v1.484    c0,0.638,0.162,1.157,0.487,1.556s0.809,0.598,1.448,0.598c0.512,0,0.92-0.125,1.225-0.376c0.304-0.25,0.546-0.584,0.728-1    l1.328,0.704c-0.277,0.686-0.693,1.211-1.248,1.578C368.146,453.659,367.468,453.842,366.668,453.842z" />
			<path fill="#FFFFFF"
				d="M371.597,441.811h1.744v4.896h0.08c0.181-0.448,0.456-0.821,0.824-1.12    c0.367-0.298,0.871-0.448,1.512-0.448c0.854,0,1.517,0.28,1.992,0.84c0.474,0.56,0.712,1.357,0.712,2.392v5.28h-1.744v-5.072    c0-1.291-0.522-1.936-1.568-1.936c-0.224,0-0.445,0.029-0.664,0.088s-0.413,0.146-0.584,0.264    c-0.171,0.117-0.307,0.267-0.408,0.448c-0.101,0.182-0.151,0.39-0.151,0.624v5.584h-1.744V441.811z" />
		</g>
		<polygon fill="#007452" points="76.67,577.806 76.67,600.483 178.717,600.483 178.717,577.806 76.67,577.806  " />
		<g>
			<path fill="#FFFFFF"
				d="M83.379,595.385h-1.808v-11.168h4.816c1.002,0,1.792,0.302,2.368,0.904s0.864,1.421,0.864,2.456    c0,0.8-0.184,1.464-0.552,1.991c-0.368,0.528-0.91,0.899-1.624,1.112l2.416,4.704h-2.016l-2.24-4.512h-2.224V595.385z     M86.259,589.353c0.458,0,0.816-0.119,1.072-0.358c0.256-0.238,0.384-0.581,0.384-1.027v-0.765c0-0.445-0.128-0.788-0.384-1.027    c-0.256-0.238-0.614-0.358-1.072-0.358h-2.88v3.536H86.259z" />
		</g>
		<g>
			<path fill="#FFFFFF"
				d="M94.931,595.577c-0.598,0-1.131-0.102-1.6-0.305c-0.47-0.202-0.87-0.493-1.2-0.872    c-0.331-0.378-0.584-0.837-0.76-1.376c-0.176-0.538-0.264-1.138-0.264-1.8c0-0.661,0.088-1.261,0.264-1.8    c0.176-0.538,0.429-0.997,0.76-1.376s0.73-0.669,1.2-0.872c0.469-0.202,1.002-0.304,1.6-0.304c0.608,0,1.144,0.106,1.608,0.319    c0.464,0.214,0.851,0.51,1.16,0.889c0.31,0.379,0.542,0.818,0.696,1.319c0.154,0.502,0.232,1.04,0.232,1.616v0.656h-5.712v0.271    c0,0.636,0.189,1.157,0.568,1.565c0.378,0.408,0.92,0.612,1.624,0.612c0.512,0,0.944-0.111,1.296-0.334s0.65-0.524,0.896-0.906    l1.024,1.011c-0.309,0.514-0.757,0.923-1.344,1.228C96.392,595.424,95.709,595.577,94.931,595.577z M94.931,588.232    c-0.299,0-0.574,0.054-0.824,0.16c-0.251,0.107-0.464,0.256-0.64,0.448c-0.176,0.192-0.312,0.422-0.408,0.688    c-0.096,0.268-0.144,0.561-0.144,0.881v0.111h3.872v-0.16c0-0.64-0.166-1.154-0.496-1.544    C95.959,588.428,95.506,588.232,94.931,588.232z" />
			<path fill="#FFFFFF"
				d="M100.563,595.385v-8.32h1.744v1.376h0.08c0.182-0.447,0.456-0.821,0.824-1.12    c0.368-0.298,0.872-0.447,1.512-0.447c0.853,0,1.517,0.279,1.992,0.84c0.475,0.56,0.712,1.357,0.712,2.392v5.28h-1.744v-5.056    c0-1.302-0.523-1.952-1.568-1.952c-0.224,0-0.445,0.029-0.664,0.088c-0.219,0.059-0.414,0.146-0.584,0.264    c-0.17,0.118-0.307,0.267-0.408,0.448c-0.102,0.182-0.152,0.395-0.152,0.64v5.568H100.563z" />
			<path fill="#FFFFFF"
				d="M109.842,595.385v-8.32h1.744v1.376h0.08c0.182-0.447,0.456-0.821,0.824-1.12    c0.368-0.298,0.872-0.447,1.512-0.447c0.853,0,1.517,0.279,1.992,0.84c0.475,0.56,0.712,1.357,0.712,2.392v5.28h-1.744v-5.056    c0-1.302-0.523-1.952-1.568-1.952c-0.224,0-0.445,0.029-0.664,0.088c-0.219,0.059-0.414,0.146-0.584,0.264    c-0.17,0.118-0.307,0.267-0.408,0.448c-0.102,0.182-0.152,0.395-0.152,0.64v5.568H109.842z" />
			<path fill="#FFFFFF"
				d="M122.386,595.577c-0.598,0-1.131-0.102-1.6-0.305c-0.47-0.202-0.87-0.493-1.2-0.872    c-0.331-0.378-0.584-0.837-0.76-1.376c-0.176-0.538-0.264-1.138-0.264-1.8c0-0.661,0.088-1.261,0.264-1.8    c0.176-0.538,0.429-0.997,0.76-1.376s0.73-0.669,1.2-0.872c0.469-0.202,1.002-0.304,1.6-0.304c0.608,0,1.144,0.106,1.608,0.319    c0.464,0.214,0.851,0.51,1.16,0.889c0.31,0.379,0.542,0.818,0.696,1.319c0.154,0.502,0.232,1.04,0.232,1.616v0.656h-5.712v0.271    c0,0.636,0.189,1.157,0.568,1.565c0.378,0.408,0.92,0.612,1.624,0.612c0.512,0,0.944-0.111,1.296-0.334s0.65-0.524,0.896-0.906    l1.024,1.011c-0.309,0.514-0.757,0.923-1.344,1.228C123.847,595.424,123.165,595.577,122.386,595.577z M122.386,588.232    c-0.299,0-0.574,0.054-0.824,0.16c-0.251,0.107-0.464,0.256-0.64,0.448c-0.176,0.192-0.312,0.422-0.408,0.688    c-0.096,0.268-0.144,0.561-0.144,0.881v0.111h3.872v-0.16c0-0.64-0.166-1.154-0.496-1.544    C123.415,588.428,122.962,588.232,122.386,588.232z" />
			<path fill="#FFFFFF"
				d="M128.018,595.385v-8.32h1.744v1.601h0.08c0.118-0.427,0.363-0.8,0.736-1.12    c0.373-0.32,0.891-0.48,1.552-0.48h0.464v1.681h-0.688c-0.694,0-1.224,0.111-1.592,0.336c-0.368,0.224-0.552,0.555-0.552,0.992    v5.312H128.018z" />
		</g>
		<g>
			<path fill="#FFFFFF" d="M133.726,591.4v-1.775h4.432v1.775H133.726z" />
			<path fill="#FFFFFF"
				d="M149.07,586.841h-0.08l-0.88,1.808l-2.448,4.464l-2.448-4.464l-0.88-1.808h-0.08v8.544h-1.728v-11.168    h2.144l2.992,5.68h0.096l2.992-5.68h2.048v11.168h-1.728V586.841z" />
			<path fill="#FFFFFF"
				d="M159.518,595.385c-0.459,0-0.811-0.131-1.056-0.392c-0.246-0.262-0.395-0.595-0.448-1h-0.08    c-0.16,0.522-0.453,0.917-0.88,1.184s-0.944,0.4-1.552,0.4c-0.864,0-1.528-0.225-1.992-0.673c-0.464-0.447-0.696-1.05-0.696-1.808    c0-0.832,0.301-1.456,0.904-1.872s1.485-0.624,2.648-0.624h1.504v-0.704c0-0.512-0.139-0.906-0.416-1.184    s-0.709-0.416-1.296-0.416c-0.491,0-0.891,0.106-1.2,0.32c-0.31,0.213-0.571,0.485-0.784,0.815l-1.04-0.944    c0.277-0.469,0.667-0.855,1.168-1.159c0.501-0.305,1.157-0.456,1.968-0.456c1.077,0,1.904,0.25,2.48,0.752    c0.576,0.501,0.864,1.222,0.864,2.16v4.176h0.88v1.424H159.518z M155.998,594.249c0.544,0,0.992-0.12,1.344-0.36    s0.528-0.563,0.528-0.968v-1.2h-1.472c-1.206,0-1.808,0.374-1.808,1.12v0.288c0,0.373,0.125,0.653,0.376,0.84    C155.216,594.155,155.56,594.249,155.998,594.249z" />
			<path fill="#FFFFFF"
				d="M167.31,587.064h1.68l-3.504,9.969c-0.096,0.276-0.206,0.514-0.328,0.712    c-0.123,0.197-0.267,0.356-0.432,0.479c-0.166,0.123-0.366,0.214-0.6,0.272c-0.235,0.059-0.512,0.088-0.832,0.088h-1.008v-1.424    h1.408l0.48-1.408l-3.024-8.688h1.744l1.664,4.896l0.48,1.808h0.08l0.528-1.808L167.31,587.064z" />
			<path fill="#FFFFFF"
				d="M170.429,595.385v-8.32h1.744v1.601h0.08c0.118-0.427,0.363-0.8,0.736-1.12    c0.373-0.32,0.891-0.48,1.552-0.48h0.464v1.681h-0.688c-0.694,0-1.224,0.111-1.592,0.336c-0.368,0.224-0.552,0.555-0.552,0.992    v5.312H170.429z" />
		</g>
		<path fill="none" stroke="#000000" stroke-width="2"
			d="M211.752,387.552L157.408,490.21 M165.456,482.936l-8.048,7.275   l1.491-10.746" />
		<polygon fill="#007452"
			points="326.118,549.46 326.118,572.136 382.811,572.136 382.811,549.46 326.118,549.46  " />
		<g>
			<path fill="#FFFFFF"
				d="M341.627,567.233c-1.462,0-2.608-0.493-3.44-1.48c-0.832-0.986-1.248-2.418-1.248-4.296    c0-0.938,0.106-1.766,0.32-2.48c0.213-0.714,0.522-1.316,0.928-1.808c0.405-0.49,0.898-0.861,1.48-1.112    c0.581-0.25,1.234-0.376,1.96-0.376c0.97,0,1.783,0.212,2.439,0.634c0.656,0.423,1.171,1.049,1.544,1.879l-1.52,0.832    c-0.192-0.533-0.488-0.958-0.889-1.272c-0.399-0.314-0.925-0.472-1.575-0.472c-0.864,0-1.542,0.294-2.032,0.883    c-0.491,0.59-0.736,1.403-0.736,2.441v1.703c0,1.038,0.245,1.853,0.736,2.441c0.49,0.589,1.168,0.883,2.032,0.883    c0.672,0,1.218-0.173,1.64-0.52c0.421-0.347,0.733-0.792,0.936-1.336l1.456,0.88c-0.373,0.809-0.896,1.44-1.567,1.895    S342.597,567.233,341.627,567.233z" />
			<path fill="#FFFFFF"
				d="M350.922,567.233c-0.938,0-1.735-0.171-2.392-0.513c-0.656-0.341-1.219-0.8-1.688-1.376l1.248-1.168    c0.395,0.48,0.829,0.843,1.305,1.088c0.474,0.246,1.016,0.368,1.624,0.368c0.714,0,1.253-0.16,1.615-0.479    c0.363-0.32,0.544-0.752,0.544-1.296c0-0.438-0.128-0.784-0.384-1.04c-0.256-0.257-0.709-0.448-1.359-0.576l-0.992-0.176    c-1.088-0.203-1.904-0.561-2.448-1.072s-0.816-1.216-0.816-2.112c0-0.49,0.094-0.936,0.28-1.336s0.448-0.736,0.784-1.008    c0.336-0.272,0.744-0.482,1.224-0.632c0.48-0.149,1.019-0.225,1.616-0.225c0.843,0,1.573,0.147,2.192,0.44    c0.618,0.293,1.146,0.718,1.584,1.271l-1.265,1.12c-0.288-0.373-0.64-0.672-1.056-0.896c-0.416-0.225-0.934-0.336-1.552-0.336    c-0.641,0-1.136,0.128-1.488,0.384c-0.352,0.256-0.528,0.63-0.528,1.12c0,0.47,0.145,0.818,0.433,1.048s0.735,0.402,1.344,0.52    l0.992,0.208c1.12,0.214,1.938,0.576,2.456,1.089c0.517,0.512,0.775,1.216,0.775,2.111c0,0.523-0.09,0.998-0.271,1.424    c-0.182,0.427-0.445,0.792-0.792,1.097c-0.347,0.304-0.771,0.538-1.272,0.704C352.133,567.15,351.563,567.233,350.922,567.233z" />
			<path fill="#FFFFFF"
				d="M360.443,567.041v-1.472h1.52v-8.225h-1.52v-1.472h4.863v1.472h-1.536v8.225h1.536v1.472H360.443z" />
			<path fill="#FFFFFF"
				d="M367.099,567.041v-1.472h1.52v-8.225h-1.52v-1.472h4.863v1.472h-1.536v8.225h1.536v1.472H367.099z" />
		</g>
		<polygon fill="#007452"
			points="42.654,662.845 42.654,685.522 127.693,685.522 127.693,662.845 42.654,662.845  " />
		<g>
			<path fill="#FFFFFF"
				d="M55.591,680.424l-1.008-3.024h-4.176l-0.976,3.024h-1.84l3.808-11.168h2.272l3.808,11.168H55.591z     M52.535,670.92h-0.08l-1.616,4.928h3.296L52.535,670.92z" />
			<path fill="#FFFFFF"
				d="M59.079,668.584h1.744v4.896h0.08c0.182-0.501,0.478-0.888,0.888-1.159    c0.411-0.272,0.893-0.408,1.448-0.408c1.056,0,1.872,0.381,2.448,1.144s0.864,1.832,0.864,3.208s-0.288,2.445-0.864,3.208    s-1.392,1.145-2.448,1.145c-0.555,0-1.038-0.139-1.448-0.416s-0.707-0.661-0.888-1.152h-0.08v1.376h-1.744V668.584z     M62.71,679.112c0.608,0,1.093-0.195,1.456-0.585c0.363-0.389,0.544-0.903,0.544-1.544v-1.439c0-0.64-0.181-1.154-0.544-1.544    s-0.848-0.584-1.456-0.584c-0.533,0-0.981,0.131-1.344,0.392c-0.363,0.262-0.544,0.605-0.544,1.032v2.848    c0,0.427,0.181,0.771,0.544,1.032C61.729,678.981,62.177,679.112,62.71,679.112z" />
			<path fill="#FFFFFF"
				d="M68.55,680.424v-8.32h1.744v1.601h0.08c0.118-0.427,0.363-0.8,0.736-1.12    c0.373-0.32,0.891-0.48,1.552-0.48h0.464v1.681h-0.688c-0.694,0-1.224,0.111-1.592,0.336c-0.368,0.224-0.552,0.555-0.552,0.992    v5.312H68.55z" />
			<path fill="#FFFFFF"
				d="M80.774,680.424c-0.459,0-0.811-0.131-1.056-0.392c-0.246-0.262-0.395-0.595-0.448-1h-0.08    c-0.16,0.522-0.453,0.917-0.88,1.184s-0.944,0.4-1.552,0.4c-0.864,0-1.528-0.225-1.992-0.673c-0.464-0.447-0.696-1.05-0.696-1.808    c0-0.832,0.301-1.456,0.904-1.872s1.485-0.624,2.648-0.624h1.504v-0.704c0-0.512-0.139-0.906-0.416-1.184    s-0.709-0.416-1.296-0.416c-0.491,0-0.891,0.106-1.2,0.32c-0.31,0.213-0.571,0.485-0.784,0.815l-1.04-0.944    c0.277-0.469,0.667-0.855,1.168-1.159c0.501-0.305,1.157-0.456,1.968-0.456c1.077,0,1.904,0.25,2.48,0.752    c0.576,0.501,0.864,1.222,0.864,2.16V679h0.88v1.424H80.774z M77.254,679.288c0.544,0,0.992-0.12,1.344-0.36    s0.528-0.563,0.528-0.968v-1.2h-1.472c-1.206,0-1.808,0.374-1.808,1.12v0.288c0,0.373,0.125,0.653,0.376,0.84    C76.473,679.194,76.817,679.288,77.254,679.288z" />
			<path fill="#FFFFFF"
				d="M83.462,680.424v-8.32h1.744v1.376h0.08c0.085-0.213,0.189-0.416,0.312-0.607    c0.123-0.192,0.272-0.36,0.448-0.504c0.176-0.145,0.384-0.256,0.624-0.336c0.24-0.08,0.52-0.12,0.84-0.12    c0.565,0,1.066,0.139,1.504,0.416s0.757,0.704,0.96,1.279h0.048c0.149-0.469,0.437-0.869,0.864-1.199    c0.427-0.331,0.976-0.496,1.648-0.496c0.832,0,1.478,0.279,1.936,0.84c0.458,0.56,0.688,1.357,0.688,2.392v5.28h-1.744v-5.072    c0-0.64-0.123-1.122-0.368-1.447c-0.246-0.326-0.635-0.488-1.168-0.488c-0.224,0-0.438,0.029-0.64,0.088s-0.381,0.146-0.536,0.264    c-0.155,0.118-0.28,0.267-0.376,0.448c-0.096,0.182-0.144,0.39-0.144,0.624v5.584h-1.744v-5.072c0-1.29-0.507-1.936-1.52-1.936    c-0.213,0-0.424,0.029-0.632,0.088s-0.392,0.146-0.552,0.264c-0.16,0.118-0.288,0.267-0.384,0.448    c-0.096,0.182-0.144,0.39-0.144,0.624v5.584H83.462z" />
			<path fill="#FFFFFF" d="M96.438,682.84l4.432-14.256h1.504l-4.432,14.256H96.438z" />
		</g>
		<g>
			<path fill="#FFFFFF"
				d="M107.329,680.616c-0.939,0-1.736-0.171-2.392-0.513c-0.656-0.341-1.219-0.8-1.688-1.376l1.248-1.168    c0.395,0.48,0.829,0.843,1.304,1.088c0.475,0.246,1.016,0.368,1.624,0.368c0.714,0,1.253-0.16,1.616-0.479    c0.362-0.32,0.544-0.752,0.544-1.296c0-0.438-0.128-0.784-0.384-1.04c-0.256-0.257-0.709-0.448-1.36-0.576l-0.992-0.176    c-1.088-0.203-1.904-0.561-2.448-1.072s-0.816-1.216-0.816-2.112c0-0.49,0.093-0.936,0.28-1.336s0.448-0.736,0.784-1.008    c0.336-0.272,0.744-0.482,1.224-0.632s1.019-0.225,1.616-0.225c0.843,0,1.573,0.147,2.192,0.44s1.146,0.718,1.584,1.271    l-1.264,1.12c-0.288-0.373-0.64-0.672-1.056-0.896c-0.416-0.225-0.934-0.336-1.552-0.336c-0.64,0-1.136,0.128-1.488,0.384    s-0.528,0.63-0.528,1.12c0,0.47,0.144,0.818,0.432,1.048c0.288,0.229,0.736,0.402,1.344,0.52l0.992,0.208    c1.12,0.214,1.938,0.576,2.456,1.089c0.517,0.512,0.776,1.216,0.776,2.111c0,0.523-0.091,0.998-0.272,1.424    c-0.182,0.427-0.446,0.792-0.792,1.097c-0.347,0.304-0.771,0.538-1.272,0.704C108.54,680.533,107.969,680.616,107.329,680.616z" />
			<path fill="#FFFFFF"
				d="M113.553,669.256h3.952c0.714,0,1.362,0.117,1.944,0.352c0.581,0.235,1.077,0.584,1.488,1.049    c0.411,0.464,0.728,1.045,0.952,1.743c0.224,0.699,0.336,1.513,0.336,2.44s-0.112,1.741-0.336,2.44    c-0.224,0.698-0.542,1.279-0.952,1.743c-0.411,0.465-0.907,0.813-1.488,1.049c-0.582,0.234-1.229,0.352-1.944,0.352h-3.952    V669.256z M117.505,678.824c0.832,0,1.504-0.262,2.016-0.784c0.512-0.522,0.768-1.291,0.768-2.305v-1.792    c0-1.013-0.256-1.781-0.768-2.304c-0.512-0.522-1.184-0.784-2.016-0.784h-2.144v7.969H117.505z" />
		</g>
		<path fill="none" stroke="#000000" d="M187.788,391.985" />
		<polygon fill="#007452"
			points="156.04,861.271 156.04,883.948 269.426,883.948 269.426,861.271 156.04,861.271  " />
		<g>
			<path fill="#FFFFFF"
				d="M162.733,867.676v6.892c0,0.95,0.181,1.667,0.544,2.147s0.981,0.721,1.856,0.721s1.494-0.24,1.856-0.721    c0.362-0.48,0.544-1.197,0.544-2.147v-6.892h1.776v6.592c0,0.821-0.075,1.531-0.224,2.128c-0.149,0.598-0.39,1.091-0.72,1.48    c-0.331,0.39-0.76,0.68-1.288,0.872c-0.528,0.191-1.176,0.288-1.944,0.288c-0.768,0-1.416-0.097-1.944-0.288    c-0.528-0.192-0.958-0.482-1.288-0.872s-0.571-0.883-0.72-1.48c-0.149-0.597-0.224-1.307-0.224-2.128v-6.592H162.733z" />
			<path fill="#FFFFFF"
				d="M178.685,878.844l-1.008-3.024h-4.176l-0.976,3.024h-1.84l3.808-11.168h2.272l3.808,11.168H178.685z     M175.629,869.34h-0.08l-1.616,4.928h3.296L175.629,869.34z" />
		</g>
		<g>
			<path fill="#FFFFFF"
				d="M189.422,879.036c-0.939,0-1.736-0.171-2.392-0.513c-0.656-0.341-1.219-0.8-1.688-1.376l1.248-1.168    c0.395,0.48,0.829,0.843,1.304,1.088c0.475,0.246,1.016,0.368,1.624,0.368c0.714,0,1.253-0.16,1.616-0.479    c0.362-0.32,0.544-0.752,0.544-1.296c0-0.438-0.128-0.784-0.384-1.04c-0.256-0.257-0.709-0.448-1.36-0.576l-0.992-0.176    c-1.088-0.203-1.904-0.561-2.448-1.072s-0.816-1.216-0.816-2.112c0-0.49,0.093-0.936,0.28-1.336s0.448-0.736,0.784-1.008    c0.336-0.272,0.744-0.482,1.224-0.632s1.019-0.225,1.616-0.225c0.843,0,1.573,0.147,2.192,0.44s1.146,0.718,1.584,1.271    l-1.264,1.12c-0.288-0.373-0.64-0.672-1.056-0.896c-0.416-0.225-0.934-0.336-1.552-0.336c-0.64,0-1.136,0.128-1.488,0.384    s-0.528,0.63-0.528,1.12c0,0.47,0.144,0.818,0.432,1.048c0.288,0.229,0.736,0.402,1.344,0.52l0.992,0.208    c1.12,0.214,1.938,0.576,2.456,1.089c0.517,0.512,0.776,1.216,0.776,2.111c0,0.523-0.091,0.998-0.272,1.424    c-0.182,0.427-0.446,0.792-0.792,1.097c-0.347,0.304-0.771,0.538-1.272,0.704C190.633,878.953,190.062,879.036,189.422,879.036z" />
			<path fill="#FFFFFF"
				d="M198.782,879.036c-0.597,0-1.13-0.102-1.6-0.305c-0.47-0.202-0.87-0.493-1.2-0.872    c-0.331-0.378-0.584-0.837-0.76-1.376c-0.176-0.538-0.264-1.138-0.264-1.8c0-0.661,0.088-1.261,0.264-1.8    c0.176-0.538,0.429-0.997,0.76-1.376s0.73-0.669,1.2-0.872c0.469-0.202,1.002-0.304,1.6-0.304c0.608,0,1.145,0.106,1.608,0.319    c0.464,0.214,0.851,0.51,1.16,0.889c0.309,0.379,0.541,0.818,0.695,1.319c0.155,0.502,0.232,1.04,0.232,1.616v0.656h-5.712v0.271    c0,0.636,0.189,1.157,0.568,1.565c0.378,0.408,0.92,0.612,1.625,0.612c0.512,0,0.943-0.111,1.296-0.334    c0.352-0.223,0.65-0.524,0.896-0.906l1.024,1.011c-0.31,0.514-0.758,0.923-1.345,1.228    C200.244,878.883,199.56,879.036,198.782,879.036z M198.782,871.691c-0.298,0-0.573,0.054-0.824,0.16    c-0.251,0.107-0.464,0.256-0.64,0.448c-0.176,0.192-0.312,0.422-0.408,0.688c-0.096,0.268-0.144,0.561-0.144,0.881v0.111h3.872    v-0.16c0-0.64-0.166-1.154-0.496-1.544C199.811,871.887,199.358,871.691,198.782,871.691z" />
			<path fill="#FFFFFF"
				d="M204.415,870.523h1.744v1.376h0.08c0.181-0.501,0.477-0.888,0.888-1.159    c0.41-0.272,0.894-0.408,1.448-0.408c1.056,0,1.872,0.381,2.448,1.144c0.575,0.763,0.863,1.832,0.863,3.208    s-0.288,2.445-0.863,3.208c-0.576,0.763-1.393,1.145-2.448,1.145c-0.555,0-1.038-0.139-1.448-0.416    c-0.411-0.277-0.707-0.661-0.888-1.152h-0.08v4.576h-1.744V870.523z M208.046,877.532c0.608,0,1.094-0.195,1.456-0.585    c0.362-0.389,0.544-0.903,0.544-1.544v-1.439c0-0.64-0.182-1.154-0.544-1.544s-0.848-0.584-1.456-0.584    c-0.533,0-0.981,0.131-1.344,0.392c-0.363,0.262-0.544,0.605-0.544,1.032v2.848c0,0.427,0.181,0.771,0.544,1.032    C207.065,877.401,207.513,877.532,208.046,877.532z" />
			<path fill="#FFFFFF"
				d="M216.19,878.844c-0.607,0-1.066-0.157-1.376-0.472s-0.464-0.761-0.464-1.336v-5.089h-1.296v-1.424h0.704    c0.288,0,0.488-0.063,0.6-0.191c0.112-0.128,0.168-0.336,0.168-0.624v-1.456h1.568v2.271h1.744v1.424h-1.744v5.473h1.616v1.424    H216.19z" />
			<path fill="#FFFFFF"
				d="M222.99,879.036c-0.598,0-1.131-0.102-1.6-0.305c-0.47-0.202-0.869-0.493-1.2-0.872    c-0.331-0.378-0.584-0.837-0.76-1.376c-0.176-0.538-0.264-1.138-0.264-1.8c0-0.661,0.088-1.261,0.264-1.8    c0.176-0.538,0.429-0.997,0.76-1.376s0.73-0.669,1.2-0.872c0.469-0.202,1.002-0.304,1.6-0.304c0.608,0,1.145,0.106,1.608,0.319    c0.464,0.214,0.851,0.51,1.16,0.889c0.309,0.379,0.541,0.818,0.695,1.319c0.155,0.502,0.232,1.04,0.232,1.616v0.656h-5.712v0.271    c0,0.636,0.189,1.157,0.568,1.565c0.378,0.408,0.92,0.612,1.624,0.612c0.512,0,0.943-0.111,1.296-0.334    c0.352-0.223,0.65-0.524,0.896-0.906l1.024,1.011c-0.31,0.514-0.758,0.923-1.345,1.228    C224.452,878.883,223.768,879.036,222.99,879.036z M222.99,871.691c-0.299,0-0.573,0.054-0.823,0.16    c-0.251,0.107-0.465,0.256-0.641,0.448s-0.312,0.422-0.408,0.688c-0.096,0.268-0.144,0.561-0.144,0.881v0.111h3.872v-0.16    c0-0.64-0.166-1.154-0.496-1.544C224.019,871.887,223.566,871.691,222.99,871.691z" />
			<path fill="#FFFFFF"
				d="M228.622,878.844v-8.32h1.744v1.376h0.08c0.085-0.213,0.189-0.416,0.312-0.607    c0.123-0.192,0.272-0.36,0.448-0.504c0.176-0.145,0.384-0.256,0.624-0.336s0.52-0.12,0.84-0.12c0.565,0,1.066,0.139,1.504,0.416    s0.758,0.704,0.96,1.279h0.048c0.149-0.469,0.438-0.869,0.864-1.199c0.427-0.331,0.977-0.496,1.648-0.496    c0.832,0,1.477,0.279,1.936,0.84c0.459,0.56,0.688,1.357,0.688,2.392v5.28h-1.744v-5.072c0-0.64-0.123-1.122-0.368-1.447    c-0.245-0.326-0.635-0.488-1.168-0.488c-0.224,0-0.438,0.029-0.64,0.088c-0.203,0.059-0.382,0.146-0.536,0.264    c-0.155,0.118-0.28,0.267-0.376,0.448c-0.097,0.182-0.145,0.39-0.145,0.624v5.584h-1.744v-5.072c0-1.29-0.507-1.936-1.52-1.936    c-0.214,0-0.424,0.029-0.632,0.088s-0.393,0.146-0.553,0.264c-0.159,0.118-0.287,0.267-0.384,0.448    c-0.096,0.182-0.144,0.39-0.144,0.624v5.584H228.622z" />
			<path fill="#FFFFFF"
				d="M242.734,867.004h1.744v4.896h0.08c0.181-0.501,0.477-0.888,0.888-1.159    c0.41-0.272,0.894-0.408,1.448-0.408c1.056,0,1.872,0.381,2.448,1.144c0.575,0.763,0.863,1.832,0.863,3.208    s-0.288,2.445-0.863,3.208c-0.576,0.763-1.393,1.145-2.448,1.145c-0.555,0-1.038-0.139-1.448-0.416    c-0.411-0.277-0.707-0.661-0.888-1.152h-0.08v1.376h-1.744V867.004z M246.366,877.532c0.608,0,1.094-0.195,1.456-0.585    c0.362-0.389,0.544-0.903,0.544-1.544v-1.439c0-0.64-0.182-1.154-0.544-1.544s-0.848-0.584-1.456-0.584    c-0.533,0-0.981,0.131-1.344,0.392c-0.363,0.262-0.544,0.605-0.544,1.032v2.848c0,0.427,0.181,0.771,0.544,1.032    C245.384,877.401,245.833,877.532,246.366,877.532z" />
			<path fill="#FFFFFF"
				d="M255.469,879.036c-0.598,0-1.131-0.102-1.6-0.305c-0.47-0.202-0.869-0.493-1.2-0.872    c-0.331-0.378-0.584-0.837-0.76-1.376c-0.176-0.538-0.264-1.138-0.264-1.8c0-0.661,0.088-1.261,0.264-1.8    c0.176-0.538,0.429-0.997,0.76-1.376s0.73-0.669,1.2-0.872c0.469-0.202,1.002-0.304,1.6-0.304c0.608,0,1.145,0.106,1.608,0.319    c0.464,0.214,0.851,0.51,1.16,0.889c0.309,0.379,0.541,0.818,0.695,1.319c0.155,0.502,0.232,1.04,0.232,1.616v0.656h-5.712v0.271    c0,0.636,0.189,1.157,0.568,1.565c0.378,0.408,0.92,0.612,1.624,0.612c0.512,0,0.943-0.111,1.296-0.334    c0.352-0.223,0.65-0.524,0.896-0.906l1.024,1.011c-0.31,0.514-0.758,0.923-1.345,1.228    C256.931,878.883,256.248,879.036,255.469,879.036z M255.469,871.691c-0.299,0-0.573,0.054-0.823,0.16    c-0.251,0.107-0.465,0.256-0.641,0.448s-0.312,0.422-0.408,0.688c-0.096,0.268-0.144,0.561-0.144,0.881v0.111h3.872v-0.16    c0-0.64-0.166-1.154-0.496-1.544C256.499,871.887,256.045,871.691,255.469,871.691z" />
			<path fill="#FFFFFF"
				d="M261.102,878.844v-8.32h1.744v1.601h0.08c0.117-0.427,0.362-0.8,0.735-1.12    c0.374-0.32,0.891-0.48,1.553-0.48h0.464v1.681h-0.688c-0.693,0-1.224,0.111-1.592,0.336c-0.368,0.224-0.552,0.555-0.552,0.992    v5.312H261.102z" />
		</g>
		<path fill="none" stroke="#000000" stroke-width="3"
			d="M212.733,945.345v53.271 M217.442,985.673l-4.709,12.943l-4.71-12.943    M212.733,820.31v36.574 M217.442,843.942l-4.709,12.941l-4.71-12.941" />
		<polygon fill="#007452"
			points="184.386,1003.003 184.386,1025.677 241.08,1025.677 241.08,1003.003 184.386,1003.003  " />
		<g>
			<path fill="#FFFFFF"
				d="M192.926,1008.797h5.814c0.516,0,0.981,0.079,1.395,0.234c0.414,0.156,0.766,0.372,1.054,0.648    c0.288,0.275,0.507,0.614,0.656,1.017c0.15,0.402,0.226,0.843,0.226,1.323c0,0.479-0.063,0.885-0.189,1.215    s-0.294,0.603-0.504,0.819c-0.21,0.216-0.45,0.378-0.72,0.485c-0.271,0.108-0.549,0.168-0.837,0.181v0.107    c0.275,0,0.573,0.054,0.891,0.162c0.318,0.108,0.612,0.279,0.882,0.513c0.271,0.234,0.495,0.534,0.676,0.9    c0.18,0.366,0.27,0.819,0.27,1.359c0,0.504-0.081,0.975-0.243,1.413c-0.162,0.438-0.387,0.818-0.675,1.143    s-0.63,0.579-1.026,0.765c-0.396,0.187-0.827,0.279-1.296,0.279h-6.372V1008.797z M195.302,1014.035h2.934    c0.432,0,0.768-0.117,1.008-0.351c0.24-0.234,0.36-0.562,0.36-0.981v-0.558c0-0.42-0.12-0.747-0.36-0.981    c-0.24-0.233-0.576-0.351-1.008-0.351h-2.934V1014.035z M195.302,1019.346h3.312c0.456,0,0.81-0.117,1.062-0.352    c0.252-0.233,0.378-0.572,0.378-1.017v-0.612c0-0.443-0.126-0.786-0.378-1.026c-0.252-0.239-0.605-0.359-1.062-0.359h-3.312    V1019.346z" />
		</g>
		<g>
			<path fill="#FFFFFF" d="M204.423,1017.023v-2.286h5.148v2.286H204.423z" />
			<path fill="#FFFFFF"
				d="M214.557,1021.361l-4.104-12.564h2.43l1.926,6.12l1.116,4.177h0.055l1.098-4.177l1.926-6.12h2.358    l-4.104,12.564H214.557z" />
			<path fill="#FFFFFF"
				d="M230.685,1019.417h-0.072c-0.108,0.612-0.447,1.125-1.017,1.539c-0.57,0.414-1.33,0.621-2.277,0.621    c-0.744,0-1.431-0.138-2.062-0.414c-0.63-0.275-1.176-0.687-1.638-1.232s-0.825-1.222-1.089-2.025s-0.396-1.733-0.396-2.79    c0-1.056,0.136-1.989,0.405-2.799c0.271-0.811,0.651-1.491,1.144-2.043c0.491-0.552,1.08-0.972,1.764-1.26    s1.446-0.433,2.286-0.433c1.128,0,2.088,0.246,2.88,0.738s1.416,1.2,1.872,2.124l-1.926,1.134c-0.229-0.54-0.567-0.99-1.018-1.35    c-0.45-0.36-1.053-0.54-1.809-0.54c-0.937,0-1.684,0.285-2.241,0.854c-0.558,0.57-0.837,1.413-0.837,2.529v2.016    c0,1.104,0.282,1.944,0.846,2.521c0.564,0.576,1.32,0.864,2.269,0.864c0.371,0,0.72-0.045,1.044-0.136    c0.324-0.09,0.605-0.225,0.846-0.404c0.24-0.181,0.432-0.402,0.576-0.666c0.144-0.264,0.216-0.576,0.216-0.937v-0.81h-2.466    v-1.998h4.752v6.84h-2.052V1019.417z" />
		</g>
		<polygon fill="#007452" points="127.693,53.396 127.693,95.916 297.772,95.916 297.772,53.396 127.693,53.396  " />
		<g>
			<path fill="#FFFFFF"
				d="M192.6,65.661l-1.536,1.76v3.456h-1.808V59.709h1.808v5.664h0.064l1.6-2.032l3.008-3.632h2.112    l-3.984,4.704l4.304,6.464h-2.176L192.6,65.661z" />
		</g>
		<g>
			<path fill="#FFFFFF"
				d="M202.555,71.069c-0.598,0-1.131-0.102-1.6-0.304c-0.47-0.203-0.869-0.494-1.2-0.872    s-0.584-0.837-0.76-1.376s-0.264-1.139-0.264-1.8c0-0.661,0.088-1.261,0.264-1.8s0.429-0.997,0.76-1.376    c0.331-0.378,0.73-0.669,1.2-0.872c0.469-0.203,1.002-0.304,1.6-0.304c0.608,0,1.145,0.107,1.608,0.32s0.851,0.509,1.16,0.888    c0.309,0.379,0.541,0.819,0.695,1.32c0.155,0.501,0.232,1.04,0.232,1.616v0.656h-5.712v0.27c0,0.636,0.189,1.158,0.568,1.566    c0.378,0.408,0.92,0.612,1.624,0.612c0.512,0,0.943-0.111,1.296-0.333c0.352-0.223,0.65-0.525,0.896-0.906l1.024,1.011    c-0.31,0.514-0.758,0.923-1.345,1.228C204.017,70.917,203.333,71.069,202.555,71.069z M202.555,63.725    c-0.299,0-0.573,0.053-0.823,0.16c-0.251,0.107-0.465,0.256-0.641,0.448s-0.312,0.421-0.408,0.688    c-0.096,0.267-0.144,0.56-0.144,0.88v0.112h3.872v-0.16c0-0.64-0.166-1.155-0.496-1.544    C203.584,63.92,203.131,63.725,202.555,63.725z" />
			<path fill="#FFFFFF"
				d="M209.964,70.877c-0.598,0-1.043-0.152-1.336-0.456c-0.294-0.304-0.44-0.728-0.44-1.272V59.037h1.744    v10.416h1.151v1.424H209.964z" />
			<path fill="#FFFFFF"
				d="M215.387,71.069c-0.789,0-1.45-0.139-1.983-0.416c-0.534-0.277-0.998-0.661-1.393-1.152l1.12-1.024    c0.31,0.374,0.653,0.664,1.032,0.872s0.818,0.312,1.32,0.312c0.512,0,0.893-0.099,1.144-0.296    c0.251-0.197,0.376-0.472,0.376-0.824c0-0.267-0.088-0.493-0.264-0.68c-0.176-0.187-0.483-0.306-0.92-0.36l-0.769-0.096    c-0.854-0.106-1.522-0.354-2.008-0.744c-0.485-0.39-0.728-0.968-0.728-1.736c0-0.405,0.074-0.765,0.224-1.08    c0.149-0.314,0.36-0.581,0.632-0.8c0.272-0.218,0.598-0.386,0.977-0.504c0.378-0.117,0.797-0.176,1.256-0.176    c0.746,0,1.357,0.118,1.832,0.352c0.475,0.235,0.898,0.56,1.271,0.976l-1.072,1.024c-0.213-0.256-0.493-0.477-0.84-0.664    c-0.347-0.187-0.744-0.28-1.191-0.28c-0.48,0-0.835,0.096-1.064,0.288s-0.344,0.443-0.344,0.752c0,0.32,0.102,0.56,0.304,0.72    c0.203,0.16,0.528,0.278,0.977,0.352l0.768,0.096c0.917,0.139,1.587,0.408,2.008,0.808c0.422,0.4,0.632,0.936,0.632,1.608    c0,0.405-0.077,0.771-0.231,1.096c-0.155,0.325-0.376,0.605-0.664,0.84c-0.288,0.235-0.635,0.416-1.04,0.544    S215.889,71.069,215.387,71.069z" />
			<path fill="#FFFFFF"
				d="M223.915,71.069c-0.598,0-1.131-0.102-1.6-0.304c-0.47-0.203-0.869-0.494-1.2-0.872    s-0.584-0.837-0.76-1.376s-0.264-1.139-0.264-1.8c0-0.661,0.088-1.261,0.264-1.8s0.429-0.997,0.76-1.376    c0.331-0.378,0.73-0.669,1.2-0.872c0.469-0.203,1.002-0.304,1.6-0.304c0.608,0,1.145,0.107,1.608,0.32s0.851,0.509,1.16,0.888    c0.309,0.379,0.541,0.819,0.695,1.32c0.155,0.501,0.232,1.04,0.232,1.616v0.656h-5.712v0.27c0,0.636,0.189,1.158,0.568,1.566    c0.378,0.408,0.92,0.612,1.624,0.612c0.512,0,0.943-0.111,1.296-0.333c0.352-0.223,0.65-0.525,0.896-0.906l1.024,1.011    c-0.31,0.514-0.758,0.923-1.345,1.228C225.376,70.917,224.693,71.069,223.915,71.069z M223.915,63.725    c-0.299,0-0.573,0.053-0.823,0.16c-0.251,0.107-0.465,0.256-0.641,0.448s-0.312,0.421-0.408,0.688    c-0.096,0.267-0.144,0.56-0.144,0.88v0.112h3.872v-0.16c0-0.64-0.166-1.155-0.496-1.544    C224.944,63.92,224.491,63.725,223.915,63.725z" />
			<path fill="#FFFFFF"
				d="M229.547,70.877v-8.32h1.744v1.376h0.08c0.181-0.448,0.456-0.821,0.824-1.12    c0.367-0.298,0.871-0.448,1.512-0.448c0.854,0,1.517,0.28,1.992,0.84c0.474,0.56,0.712,1.357,0.712,2.392v5.28h-1.744v-5.056    c0-1.301-0.522-1.952-1.568-1.952c-0.224,0-0.445,0.029-0.664,0.088s-0.413,0.146-0.584,0.264    c-0.171,0.117-0.307,0.267-0.408,0.448c-0.101,0.182-0.151,0.395-0.151,0.64v5.568H229.547z" />
		</g>
		<g>
			<path fill="#FFFFFF"
				d="M219.44,92.234v-1.472h1.52v-8.224h-1.52v-1.472h4.863v1.472h-1.536v8.224h1.536v1.472H219.44z" />
			<path fill="#FFFFFF"
				d="M229.152,92.234l-3.664-11.168h1.872l1.775,5.52l1.072,3.888h0.064l1.088-3.888l1.775-5.52h1.824    l-3.712,11.168H229.152z" />
		</g>
		<g>
			<path fill="#FFFFFF"
				d="M279.202,92.234l-3.664-11.168h1.872l1.775,5.52l1.072,3.888h0.064l1.088-3.888l1.775-5.52h1.824    l-3.712,11.168H279.202z" />
			<path fill="#FFFFFF"
				d="M286.194,92.234v-1.472h1.52v-8.224h-1.52v-1.472h4.863v1.472h-1.536v8.224h1.536v1.472H286.194z" />
		</g>
		<g>
			<path fill="#FFFFFF"
				d="M254.175,92.234l-3.664-11.168h1.872l1.775,5.52l1.072,3.888h0.064l1.088-3.888l1.775-5.52h1.824    l-3.712,11.168H254.175z" />
		</g>
		<g>
			<path fill="#FFFFFF"
				d="M189.481,92.234v-1.472h1.52v-8.224h-1.52v-1.472h4.864v1.472h-1.536v8.224h1.536v1.472H189.481z" />
			<path fill="#FFFFFF"
				d="M196.137,92.234v-1.472h1.52v-8.224h-1.52v-1.472h4.864v1.472h-1.536v8.224h1.536v1.472H196.137z" />
			<path fill="#FFFFFF"
				d="M202.793,92.234v-1.472h1.52v-8.224h-1.52v-1.472h4.863v1.472h-1.536v8.224h1.536v1.472H202.793z" />
		</g>
		<g>
			<path fill="#FFFFFF"
				d="M164.455,92.234v-1.472h1.52v-8.224h-1.52v-1.472h4.864v1.472h-1.536v8.224h1.536v1.472H164.455z" />
			<path fill="#FFFFFF"
				d="M171.111,92.234v-1.472h1.52v-8.224h-1.52v-1.472h4.864v1.472h-1.536v8.224h1.536v1.472H171.111z" />
		</g>
		<g>
			<path fill="#FFFFFF"
				d="M139.432,92.234v-1.472h1.52v-8.224h-1.52v-1.472h4.864v1.472h-1.536v8.224h1.536v1.472H139.432z" />
		</g>
		<path fill="none" stroke="#000000" stroke-width="3"
			d="M191.473,515.443v279.079 M196.183,781.579l-4.71,12.943l-4.71-12.943" />
		<a href="bv_doc_id__35.html%3Fprs%3Doff%26org%3Doff%26wrk%3Doff%26fs%3Ddefault%26img%3Don"><polygon fill="#007452" points="42.654,25.05 42.654,47.727 99.347,47.727 99.347,25.05 42.654,25.05  " /></a>
		<g>
			<path fill="#FFFFFF"
				d="M50.72,41.843h-1.582v-9.772h4.214c0.877,0,1.568,0.264,2.072,0.791c0.504,0.527,0.756,1.244,0.756,2.149    c0,0.7-0.161,1.281-0.483,1.743c-0.322,0.462-0.796,0.786-1.421,0.973l2.114,4.116h-1.764l-1.96-3.948H50.72V41.843z     M53.24,36.565c0.401,0,0.714-0.104,0.938-0.313c0.224-0.209,0.336-0.509,0.336-0.899v-0.669c0-0.39-0.112-0.689-0.336-0.898    c-0.224-0.209-0.537-0.314-0.938-0.314h-2.52v3.094H53.24z" />
		</g>
		<g>
			<path fill="#FFFFFF"
				d="M60.843,42.011c-0.523,0-0.99-0.089-1.4-0.266s-0.761-0.432-1.05-0.763    c-0.29-0.332-0.511-0.733-0.665-1.204s-0.231-0.996-0.231-1.575c0-0.579,0.077-1.104,0.231-1.575s0.375-0.873,0.665-1.204    c0.289-0.331,0.639-0.585,1.05-0.763c0.411-0.177,0.877-0.266,1.4-0.266c0.532,0,1.001,0.094,1.407,0.28    c0.406,0.187,0.744,0.446,1.015,0.777c0.271,0.332,0.474,0.716,0.609,1.155c0.135,0.438,0.203,0.91,0.203,1.414v0.574h-4.998    v0.236c0,0.557,0.166,1.013,0.497,1.37c0.331,0.357,0.805,0.536,1.421,0.536c0.448,0,0.826-0.097,1.134-0.292    c0.308-0.195,0.569-0.459,0.784-0.793l0.896,0.885c-0.271,0.449-0.663,0.807-1.176,1.074    C62.122,41.877,61.524,42.011,60.843,42.011z M60.843,35.585c-0.262,0-0.502,0.046-0.721,0.14    c-0.219,0.094-0.406,0.224-0.56,0.392s-0.273,0.369-0.357,0.602s-0.126,0.49-0.126,0.77v0.098h3.388v-0.14    c0-0.56-0.145-1.01-0.434-1.351C61.744,35.755,61.347,35.585,60.843,35.585z" />
			<path fill="#FFFFFF"
				d="M65.771,41.843v-7.28h1.526v1.204h0.07c0.159-0.392,0.399-0.718,0.721-0.98    c0.322-0.261,0.763-0.392,1.323-0.392c0.747,0,1.328,0.245,1.743,0.735c0.415,0.49,0.623,1.188,0.623,2.093v4.62h-1.526v-4.424    c0-1.139-0.457-1.708-1.372-1.708c-0.196,0-0.39,0.026-0.581,0.077c-0.191,0.052-0.362,0.128-0.511,0.231    c-0.149,0.103-0.269,0.233-0.357,0.392c-0.089,0.159-0.133,0.346-0.133,0.56v4.872H65.771z" />
			<path fill="#FFFFFF"
				d="M73.891,41.843v-7.28h1.526v1.204h0.07c0.159-0.392,0.399-0.718,0.721-0.98    c0.322-0.261,0.763-0.392,1.323-0.392c0.747,0,1.328,0.245,1.743,0.735c0.415,0.49,0.623,1.188,0.623,2.093v4.62h-1.526v-4.424    c0-1.139-0.457-1.708-1.372-1.708c-0.196,0-0.39,0.026-0.581,0.077c-0.191,0.052-0.362,0.128-0.511,0.231    c-0.149,0.103-0.269,0.233-0.357,0.392c-0.089,0.159-0.133,0.346-0.133,0.56v4.872H73.891z" />
			<path fill="#FFFFFF"
				d="M84.867,42.011c-0.523,0-0.99-0.089-1.4-0.266s-0.761-0.432-1.05-0.763    c-0.29-0.332-0.511-0.733-0.665-1.204s-0.231-0.996-0.231-1.575c0-0.579,0.077-1.104,0.231-1.575s0.375-0.873,0.665-1.204    c0.289-0.331,0.639-0.585,1.05-0.763c0.411-0.177,0.877-0.266,1.4-0.266c0.532,0,1.001,0.094,1.407,0.28    c0.406,0.187,0.744,0.446,1.015,0.777c0.271,0.332,0.474,0.716,0.609,1.155c0.135,0.438,0.203,0.91,0.203,1.414v0.574h-4.998    v0.236c0,0.557,0.166,1.013,0.497,1.37c0.331,0.357,0.805,0.536,1.421,0.536c0.448,0,0.826-0.097,1.134-0.292    c0.308-0.195,0.569-0.459,0.784-0.793l0.896,0.885c-0.271,0.449-0.663,0.807-1.176,1.074    C86.145,41.877,85.548,42.011,84.867,42.011z M84.867,35.585c-0.262,0-0.502,0.046-0.721,0.14    c-0.219,0.094-0.406,0.224-0.56,0.392s-0.273,0.369-0.357,0.602s-0.126,0.49-0.126,0.77v0.098h3.388v-0.14    c0-0.56-0.145-1.01-0.434-1.351C85.767,35.755,85.371,35.585,84.867,35.585z" />
			<path fill="#FFFFFF"
				d="M89.794,41.843v-7.28h1.526v1.4h0.07c0.103-0.374,0.317-0.7,0.644-0.98c0.327-0.28,0.779-0.42,1.358-0.42    h0.406v1.47h-0.602c-0.607,0-1.071,0.098-1.393,0.294c-0.322,0.196-0.483,0.485-0.483,0.868v4.648H89.794z" />
		</g>
		<polygon fill="#007452"
			points="326.118,166.782 326.118,189.459 382.811,189.459 382.811,166.782 326.118,166.782  " />
		<g>
			<path fill="#FFFFFF"
				d="M338.105,184.359h-1.808v-11.168h4.816c1.002,0,1.792,0.301,2.367,0.904    c0.576,0.603,0.864,1.422,0.864,2.456c0,0.8-0.184,1.464-0.552,1.992c-0.368,0.528-0.909,0.898-1.624,1.112l2.416,4.704h-2.016    l-2.24-4.512h-2.225V184.359z M340.986,178.327c0.458,0,0.815-0.119,1.071-0.358c0.256-0.239,0.384-0.582,0.384-1.028v-0.764    c0-0.446-0.128-0.789-0.384-1.027c-0.256-0.239-0.613-0.358-1.071-0.358h-2.881v3.536H340.986z" />
		</g>
		<g>
			<path fill="#FFFFFF"
				d="M349.665,184.551c-0.598,0-1.131-0.102-1.6-0.304c-0.47-0.203-0.869-0.494-1.2-0.872    s-0.584-0.837-0.76-1.376s-0.264-1.139-0.264-1.8c0-0.661,0.088-1.261,0.264-1.8s0.429-0.997,0.76-1.376    c0.331-0.378,0.73-0.669,1.2-0.872c0.469-0.203,1.002-0.304,1.6-0.304c0.608,0,1.145,0.107,1.608,0.32s0.851,0.509,1.16,0.888    c0.309,0.379,0.541,0.819,0.695,1.32c0.155,0.501,0.232,1.04,0.232,1.616v0.656h-5.712v0.27c0,0.636,0.189,1.158,0.568,1.566    c0.378,0.408,0.92,0.612,1.624,0.612c0.512,0,0.943-0.111,1.296-0.333c0.352-0.223,0.65-0.525,0.896-0.906l1.024,1.011    c-0.31,0.514-0.758,0.923-1.345,1.228C351.126,184.399,350.443,184.551,349.665,184.551z M349.665,177.208    c-0.299,0-0.573,0.053-0.823,0.16c-0.251,0.107-0.465,0.256-0.641,0.448s-0.312,0.421-0.408,0.688    c-0.096,0.267-0.144,0.56-0.144,0.88v0.112h3.872v-0.16c0-0.64-0.166-1.155-0.496-1.544    C350.694,177.402,350.241,177.208,349.665,177.208z" />
			<path fill="#FFFFFF"
				d="M355.297,172.52h1.744v4.896h0.08c0.181-0.448,0.456-0.821,0.824-1.12    c0.367-0.298,0.871-0.448,1.512-0.448c0.854,0,1.517,0.28,1.992,0.84c0.474,0.56,0.712,1.357,0.712,2.392v5.28h-1.744v-5.072    c0-1.291-0.522-1.936-1.568-1.936c-0.224,0-0.445,0.029-0.664,0.088s-0.413,0.146-0.584,0.264    c-0.171,0.117-0.307,0.267-0.408,0.448c-0.101,0.182-0.151,0.39-0.151,0.624v5.584h-1.744V172.52z" />
			<path fill="#FFFFFF"
				d="M364.577,184.359v-8.32h1.744v1.6h0.08c0.117-0.426,0.362-0.8,0.735-1.12    c0.374-0.32,0.891-0.48,1.553-0.48h0.464v1.68h-0.688c-0.693,0-1.224,0.112-1.592,0.336c-0.368,0.224-0.552,0.555-0.552,0.992    v5.312H364.577z" />
			<path fill="#FFFFFF"
				d="M372.481,184.359c-0.598,0-1.043-0.152-1.336-0.456c-0.294-0.304-0.44-0.728-0.44-1.272V172.52h1.744    v10.416h1.151v1.424H372.481z" />
		</g>
		<polygon fill="#007452"
			points="184.386,365.208 184.386,387.885 241.08,387.885 241.08,365.208 184.386,365.208  " />
		<g>
			<path fill="#FFFFFF"
				d="M196.091,374.245h-0.08l-0.88,1.808l-2.448,4.464l-2.448-4.464l-0.88-1.808h-0.08v8.544h-1.728v-11.168    h2.144l2.992,5.68h0.096l2.992-5.68h2.048v11.168h-1.728V374.245z" />
			<path fill="#FFFFFF"
				d="M206.539,382.789c-0.459,0-0.811-0.13-1.056-0.392c-0.245-0.261-0.395-0.594-0.448-1h-0.08    c-0.16,0.523-0.453,0.917-0.88,1.184s-0.944,0.4-1.552,0.4c-0.864,0-1.528-0.224-1.992-0.672c-0.464-0.448-0.696-1.05-0.696-1.808    c0-0.832,0.302-1.456,0.904-1.872s1.485-0.624,2.648-0.624h1.504v-0.704c0-0.512-0.139-0.907-0.416-1.184s-0.71-0.416-1.296-0.416    c-0.491,0-0.892,0.106-1.2,0.32c-0.31,0.213-0.571,0.485-0.784,0.816l-1.04-0.944c0.277-0.469,0.667-0.856,1.168-1.16    c0.501-0.304,1.157-0.456,1.968-0.456c1.077,0,1.904,0.251,2.48,0.752s0.864,1.221,0.864,2.16v4.176h0.88v1.424H206.539z     M203.019,381.653c0.544,0,0.992-0.12,1.344-0.36c0.352-0.24,0.528-0.563,0.528-0.968v-1.2h-1.473    c-1.205,0-1.808,0.374-1.808,1.12v0.288c0,0.374,0.125,0.653,0.376,0.84S202.582,381.653,203.019,381.653z" />
			<path fill="#FFFFFF"
				d="M214.331,374.469h1.681l-3.504,9.968c-0.097,0.277-0.206,0.515-0.328,0.712    c-0.123,0.197-0.267,0.357-0.433,0.48c-0.165,0.123-0.365,0.213-0.6,0.272s-0.512,0.088-0.832,0.088h-1.008v-1.424h1.408    l0.479-1.408l-3.023-8.688h1.743l1.664,4.896l0.48,1.808h0.08l0.528-1.808L214.331,374.469z" />
			<path fill="#FFFFFF"
				d="M217.451,382.789v-8.32h1.744v1.6h0.08c0.117-0.426,0.362-0.8,0.735-1.12    c0.374-0.32,0.891-0.48,1.553-0.48h0.464v1.68h-0.688c-0.693,0-1.224,0.112-1.592,0.336c-0.368,0.224-0.552,0.555-0.552,0.992    v5.312H217.451z" />
			<path fill="#FFFFFF"
				d="M227.003,382.789v-1.472h1.52v-8.224h-1.52v-1.472h4.863v1.472h-1.536v8.224h1.536v1.472H227.003z" />
			<path fill="#FFFFFF"
				d="M233.66,382.789v-1.472h1.52v-8.224h-1.52v-1.472h4.863v1.472h-1.536v8.224h1.536v1.472H233.66z" />
		</g>
		<polygon fill="#007452"
			points="170.213,798.907 170.213,821.585 255.252,821.585 255.252,798.907 170.213,798.907  " />
		<g>
			<path fill="#FFFFFF"
				d="M177.642,805.318v6.892c0,0.95,0.181,1.667,0.544,2.147s0.981,0.721,1.856,0.721s1.494-0.24,1.856-0.721    c0.362-0.48,0.544-1.197,0.544-2.147v-6.892h1.776v6.592c0,0.821-0.075,1.531-0.224,2.128c-0.149,0.598-0.39,1.091-0.72,1.48    c-0.331,0.39-0.76,0.68-1.288,0.872c-0.528,0.191-1.176,0.288-1.944,0.288c-0.768,0-1.416-0.097-1.944-0.288    c-0.528-0.192-0.958-0.482-1.288-0.872s-0.571-0.883-0.72-1.48c-0.149-0.597-0.224-1.307-0.224-2.128v-6.592H177.642z" />
			<path fill="#FFFFFF"
				d="M193.594,816.486l-1.008-3.024h-4.176l-0.976,3.024h-1.84l3.808-11.168h2.272l3.808,11.168H193.594z     M190.538,806.982h-0.08l-1.616,4.928h3.296L190.538,806.982z" />
		</g>
		<g>
			<path fill="#FFFFFF"
				d="M207.962,816.486l-1.008-3.024h-4.176l-0.976,3.024h-1.841l3.809-11.168h2.271l3.809,11.168H207.962z     M204.907,806.982h-0.08l-1.616,4.928h3.297L204.907,806.982z" />
			<path fill="#FFFFFF"
				d="M216.491,815.11h-0.064c-0.074,0.203-0.173,0.4-0.296,0.592c-0.122,0.192-0.277,0.36-0.464,0.504    c-0.187,0.145-0.41,0.259-0.672,0.345c-0.262,0.085-0.563,0.128-0.904,0.128c-0.863,0-1.533-0.277-2.008-0.832    s-0.712-1.35-0.712-2.385v-5.296h1.744v5.072c0,1.291,0.533,1.937,1.6,1.937c0.225,0,0.442-0.029,0.656-0.089    c0.213-0.059,0.402-0.146,0.568-0.264c0.165-0.117,0.298-0.267,0.399-0.448c0.102-0.181,0.152-0.395,0.152-0.64v-5.568h1.744v8.32    h-1.744V815.11z" />
			<path fill="#FFFFFF"
				d="M228.027,817.271c0,0.864-0.331,1.515-0.992,1.952c-0.661,0.437-1.738,0.655-3.231,0.655    c-0.683,0-1.262-0.045-1.736-0.136s-0.864-0.222-1.168-0.392c-0.304-0.171-0.525-0.379-0.664-0.624    c-0.139-0.246-0.208-0.528-0.208-0.849c0-0.458,0.125-0.815,0.376-1.071s0.6-0.433,1.048-0.528v-0.176    c-0.629-0.203-0.943-0.63-0.943-1.28c0-0.427,0.144-0.755,0.432-0.984c0.288-0.229,0.635-0.392,1.04-0.487v-0.064    c-0.491-0.234-0.867-0.563-1.128-0.983c-0.262-0.422-0.393-0.915-0.393-1.48c0-0.854,0.286-1.541,0.856-2.063    c0.57-0.523,1.39-0.784,2.456-0.784c0.586,0,1.088,0.085,1.504,0.256v-0.225c0-0.373,0.088-0.663,0.264-0.871    c0.177-0.208,0.451-0.313,0.824-0.313h1.28v1.408h-1.696v0.336c0.373,0.245,0.661,0.563,0.864,0.952    c0.202,0.39,0.304,0.824,0.304,1.304c0,0.843-0.288,1.522-0.864,2.04c-0.575,0.518-1.397,0.776-2.464,0.776    c-0.405,0-0.768-0.043-1.088-0.128c-0.213,0.074-0.399,0.179-0.56,0.312c-0.16,0.134-0.24,0.307-0.24,0.521    c0,0.224,0.102,0.384,0.304,0.479c0.203,0.096,0.491,0.145,0.864,0.145h2.048c1.024,0,1.766,0.205,2.225,0.615    C227.797,815.993,228.027,816.556,228.027,817.271z M226.395,817.462c0-0.287-0.109-0.517-0.328-0.688s-0.616-0.256-1.192-0.256    h-2.815c-0.384,0.224-0.576,0.544-0.576,0.96c0,0.341,0.136,0.616,0.408,0.824c0.271,0.208,0.733,0.312,1.384,0.312h1.088    C225.717,818.614,226.395,818.23,226.395,817.462z M223.787,812.374c0.513,0,0.909-0.114,1.192-0.344    c0.282-0.229,0.424-0.584,0.424-1.063v-0.32c0-0.48-0.142-0.835-0.424-1.064c-0.283-0.229-0.68-0.344-1.192-0.344    c-0.512,0-0.909,0.115-1.191,0.344c-0.283,0.229-0.424,0.584-0.424,1.064v0.32c0,0.479,0.141,0.834,0.424,1.063    C222.877,812.26,223.275,812.374,223.787,812.374z" />
			<path fill="#FFFFFF"
				d="M234.363,815.11h-0.064c-0.074,0.203-0.173,0.4-0.296,0.592c-0.122,0.192-0.277,0.36-0.464,0.504    c-0.187,0.145-0.41,0.259-0.672,0.345c-0.262,0.085-0.563,0.128-0.904,0.128c-0.863,0-1.533-0.277-2.008-0.832    s-0.712-1.35-0.712-2.385v-5.296h1.744v5.072c0,1.291,0.533,1.937,1.6,1.937c0.225,0,0.442-0.029,0.656-0.089    c0.213-0.059,0.402-0.146,0.568-0.264c0.165-0.117,0.298-0.267,0.399-0.448c0.102-0.181,0.152-0.395,0.152-0.64v-5.568h1.744v8.32    h-1.744V815.11z" />
			<path fill="#FFFFFF"
				d="M241.243,816.679c-0.789,0-1.45-0.139-1.983-0.416c-0.534-0.277-0.998-0.661-1.393-1.152l1.12-1.024    c0.31,0.374,0.653,0.664,1.032,0.872s0.818,0.313,1.32,0.313c0.512,0,0.893-0.099,1.144-0.296s0.376-0.473,0.376-0.824    c0-0.267-0.088-0.493-0.264-0.68s-0.483-0.307-0.92-0.36l-0.769-0.096c-0.854-0.106-1.522-0.354-2.008-0.744    s-0.728-0.968-0.728-1.736c0-0.405,0.074-0.765,0.224-1.08c0.149-0.314,0.36-0.581,0.632-0.8c0.272-0.219,0.598-0.387,0.977-0.504    c0.378-0.117,0.797-0.176,1.256-0.176c0.746,0,1.357,0.117,1.832,0.352c0.475,0.235,0.898,0.561,1.271,0.977l-1.072,1.023    c-0.213-0.256-0.493-0.478-0.84-0.664s-0.744-0.279-1.191-0.279c-0.48,0-0.835,0.096-1.064,0.287    c-0.229,0.192-0.344,0.443-0.344,0.752c0,0.32,0.102,0.561,0.304,0.721c0.203,0.16,0.528,0.277,0.977,0.352l0.768,0.096    c0.917,0.14,1.587,0.408,2.008,0.809c0.422,0.399,0.632,0.936,0.632,1.607c0,0.406-0.077,0.771-0.231,1.097    c-0.155,0.325-0.376,0.605-0.664,0.84s-0.635,0.416-1.04,0.544S241.745,816.679,241.243,816.679z" />
		</g>
		<g>
			<path fill="#FFFFFF"
				d="M248.629,816.486c-0.607,0-1.066-0.157-1.376-0.472s-0.464-0.761-0.464-1.336v-5.089h-1.296v-1.424h0.704    c0.288,0,0.488-0.063,0.6-0.191c0.112-0.128,0.168-0.336,0.168-0.624v-1.456h1.568v2.271h1.744v1.424h-1.744v5.473h1.616v1.424    H248.629z" />
		</g>
		<polygon fill="#007452" points="156.04,923.632 156.04,946.31 269.426,946.31 269.426,923.632 156.04,923.632  " />
		<g>
			<path fill="#FFFFFF"
				d="M172.636,941.213l-3.664-11.168h1.872l1.776,5.52l1.072,3.889h0.064l1.088-3.889l1.776-5.52h1.824    l-3.712,11.168H172.636z" />
			<path fill="#FFFFFF"
				d="M180.412,934.316h-1.264v-1.424h1.264v-1.376c0-0.672,0.176-1.197,0.528-1.576    c0.352-0.378,0.88-0.567,1.584-0.567h1.376v1.424h-1.744v2.096h1.744v1.424h-1.744v6.896h-1.744V934.316z" />
			<path fill="#FFFFFF"
				d="M192.524,941.213l-1.008-3.024h-4.176l-0.976,3.024h-1.84l3.808-11.168h2.272l3.808,11.168H192.524z     M189.468,931.709h-0.08l-1.616,4.928h3.296L189.468,931.709z" />
			<path fill="#FFFFFF"
				d="M199.916,941.213v-11.168h7.152v1.6h-5.345v3.104h4.849v1.6h-4.849v3.265h5.345v1.6H199.916z" />
			<path fill="#FFFFFF"
				d="M209.276,941.213v-8.32h1.744v1.376h0.08c0.181-0.447,0.456-0.821,0.824-1.12    c0.367-0.298,0.871-0.447,1.512-0.447c0.854,0,1.517,0.279,1.992,0.84c0.474,0.56,0.712,1.357,0.712,2.392v5.28h-1.744v-5.056    c0-1.302-0.522-1.952-1.568-1.952c-0.224,0-0.445,0.029-0.664,0.088s-0.413,0.146-0.584,0.264    c-0.171,0.118-0.307,0.267-0.408,0.448c-0.101,0.182-0.151,0.395-0.151,0.64v5.568H209.276z" />
			<path fill="#FFFFFF"
				d="M220.859,941.213c-0.607,0-1.066-0.157-1.376-0.472s-0.464-0.761-0.464-1.336v-5.089h-1.296v-1.424h0.704    c0.288,0,0.488-0.063,0.6-0.191c0.112-0.128,0.168-0.336,0.168-0.624v-1.456h1.568v2.271h1.744v1.424h-1.744v5.473h1.616v1.424    H220.859z" />
			<path fill="#FFFFFF"
				d="M223.563,932.893h1.696l0.848,3.488l0.752,3.152h0.048l0.864-3.152l1.008-3.488h1.568l1.023,3.488    l0.88,3.152h0.049l0.735-3.152l0.864-3.488h1.616l-2.24,8.32h-1.968l-1.088-3.792l-0.672-2.336h-0.032l-0.656,2.336l-1.104,3.792    h-1.92L223.563,932.893z" />
			<path fill="#FFFFFF"
				d="M242.219,939.837h-0.064c-0.074,0.203-0.173,0.4-0.296,0.592c-0.122,0.192-0.277,0.36-0.464,0.504    c-0.187,0.145-0.41,0.259-0.672,0.345c-0.262,0.085-0.563,0.128-0.904,0.128c-0.863,0-1.533-0.277-2.008-0.832    s-0.712-1.35-0.712-2.385v-5.296h1.744v5.072c0,1.291,0.533,1.937,1.6,1.937c0.225,0,0.442-0.029,0.656-0.089    c0.213-0.059,0.402-0.146,0.568-0.264c0.165-0.117,0.298-0.267,0.399-0.448c0.102-0.181,0.152-0.395,0.152-0.64v-5.568h1.744v8.32    h-1.744V939.837z" />
			<path fill="#FFFFFF"
				d="M246.458,941.213v-8.32h1.744v1.601h0.08c0.117-0.427,0.362-0.8,0.735-1.12    c0.374-0.32,0.891-0.48,1.553-0.48h0.464v1.681h-0.688c-0.693,0-1.224,0.111-1.592,0.336c-0.368,0.224-0.552,0.555-0.552,0.992    v5.312H246.458z" />
		</g>
		<g>
			<path fill="#FFFFFF"
				d="M253.023,934.316h-1.264v-1.424h1.264v-1.376c0-0.672,0.177-1.197,0.528-1.576    c0.352-0.378,0.88-0.567,1.584-0.567h1.376v1.424h-1.744v2.096h1.744v1.424h-1.744v6.896h-1.744V934.316z" />
		</g>
	</g>
</svg>