<?xml version="1.0" encoding="utf-8"?>
<!-- Generator: Adobe Illustrator 15.0.0, SVG Export Plug-In . SVG Version: 6.00 Build 0)  -->
<!DOCTYPE svg PUBLIC "-//W3C//DTD SVG 1.1//EN" "http://www.w3.org/Graphics/SVG/1.1/DTD/svg11.dtd">
<svg version="1.1" id="Ebene_1" xmlns="http://www.w3.org/2000/svg" xmlns:xlink="http://www.w3.org/1999/xlink" x="0px" y="0px"
	 width="99.212px" height="70.866px" viewBox="0 0 99.212 70.866" enable-background="new 0 0 99.212 70.866" xml:space="preserve">
<g>
	<path fill="#FFFFFF" d="M20.121,23.659h9.69c0.86,0,1.635,0.13,2.325,0.39s1.275,0.62,1.755,1.08
		c0.48,0.46,0.845,1.025,1.095,1.695c0.25,0.67,0.375,1.405,0.375,2.205s-0.105,1.475-0.315,2.025c-0.21,0.55-0.49,1.005-0.84,1.365
		c-0.35,0.36-0.75,0.63-1.2,0.81c-0.45,0.18-0.915,0.28-1.395,0.3v0.181c0.459,0,0.955,0.09,1.485,0.27
		c0.53,0.18,1.02,0.465,1.47,0.855c0.45,0.39,0.825,0.89,1.125,1.5c0.3,0.61,0.45,1.364,0.45,2.265c0,0.84-0.135,1.625-0.405,2.355
		c-0.27,0.729-0.645,1.364-1.125,1.904s-1.05,0.966-1.71,1.275c-0.66,0.311-1.38,0.465-2.16,0.465h-10.62V23.659z M24.081,32.389
		h4.89c0.72,0,1.28-0.195,1.68-0.585c0.399-0.39,0.6-0.935,0.6-1.635v-0.93c0-0.7-0.2-1.245-0.6-1.635
		c-0.4-0.39-0.96-0.585-1.68-0.585h-4.89V32.389z M24.081,41.238h5.52c0.76,0,1.35-0.194,1.77-0.585
		c0.42-0.39,0.63-0.954,0.63-1.694v-1.021c0-0.739-0.21-1.31-0.63-1.71c-0.42-0.399-1.01-0.6-1.77-0.6h-5.52V41.238z"/>
</g>
<g>
	<path fill="#FFFFFF" d="M51.575,44.596l-6.84-20.94h4.05l3.21,10.2l1.859,6.96h0.091l1.829-6.96l3.211-10.2h3.93l-6.84,20.94
		H51.575z"/>
</g>
<g>
	<path fill="#FFFFFF" d="M76.025,41.304h-0.119c-0.181,1.021-0.746,1.875-1.695,2.565c-0.95,0.689-2.216,1.035-3.795,1.035
		c-1.24,0-2.385-0.23-3.436-0.69c-1.05-0.46-1.96-1.145-2.729-2.055c-0.771-0.91-1.375-2.035-1.815-3.375
		c-0.439-1.34-0.66-2.89-0.66-4.65c0-1.76,0.226-3.315,0.676-4.665c0.449-1.35,1.084-2.485,1.904-3.405s1.801-1.62,2.94-2.1
		s2.41-0.72,3.81-0.72c1.88,0,3.48,0.41,4.801,1.23c1.319,0.82,2.359,2,3.119,3.54l-3.21,1.89c-0.38-0.9-0.944-1.65-1.694-2.25
		s-1.755-0.9-3.016-0.9c-1.56,0-2.805,0.476-3.734,1.425c-0.931,0.95-1.396,2.355-1.396,4.215v3.36c0,1.841,0.47,3.24,1.41,4.2
		c0.939,0.96,2.2,1.439,3.78,1.439c0.619,0,1.2-0.074,1.74-0.225s1.009-0.375,1.409-0.675s0.721-0.67,0.96-1.11
		c0.24-0.439,0.36-0.96,0.36-1.56v-1.351h-4.11v-3.33h7.921v11.4h-3.421V41.304z"/>
</g>
<g>
	<path fill="#FFFFFF" d="M43.981,44.018h-1.21v-1.88h-4.68v0.09l1.86,1.421l-0.75,0.96l-2.2-1.67v-2.301h5.77v-1.479h1.21V44.018z"
		/>
	<path fill="#FFFFFF" d="M39.651,34.178c0.494,0,0.957,0.075,1.39,0.225c0.434,0.15,0.835,0.344,1.205,0.58
		c0.37,0.237,0.702,0.504,0.995,0.801c0.293,0.296,0.54,0.595,0.74,0.895v2.07c-0.307-0.427-0.598-0.811-0.875-1.15
		c-0.276-0.34-0.555-0.635-0.835-0.885c-0.28-0.25-0.565-0.455-0.855-0.615s-0.602-0.276-0.935-0.35l-0.03,0.09
		c0.133,0.06,0.263,0.132,0.39,0.215c0.127,0.084,0.239,0.187,0.335,0.311c0.097,0.123,0.175,0.268,0.235,0.435s0.09,0.36,0.09,0.58
		c0,0.286-0.052,0.555-0.155,0.805c-0.104,0.25-0.249,0.467-0.435,0.65s-0.414,0.326-0.68,0.43s-0.566,0.155-0.9,0.155
		c-0.36,0-0.69-0.062-0.99-0.186c-0.3-0.123-0.558-0.3-0.775-0.529c-0.216-0.23-0.385-0.505-0.505-0.825s-0.18-0.68-0.18-1.08
		c0-0.413,0.065-0.783,0.195-1.11c0.13-0.326,0.316-0.602,0.56-0.824c0.244-0.224,0.535-0.394,0.875-0.511
		C38.851,34.236,39.231,34.178,39.651,34.178z M40.351,36.798c0-0.333-0.092-0.594-0.275-0.78c-0.184-0.187-0.445-0.279-0.785-0.279
		h-0.18c-0.34,0-0.602,0.093-0.785,0.279c-0.184,0.187-0.275,0.447-0.275,0.78s0.092,0.594,0.275,0.78
		c0.183,0.187,0.445,0.279,0.785,0.279h0.18c0.34,0,0.602-0.093,0.785-0.279C40.259,37.392,40.351,37.131,40.351,36.798z"/>
	<path fill="#FFFFFF" d="M43.981,29.049v4.939h-1.37l-1.84-2.15c-0.167-0.193-0.318-0.356-0.455-0.49s-0.27-0.242-0.4-0.325
		c-0.13-0.083-0.258-0.143-0.385-0.18c-0.126-0.037-0.263-0.055-0.41-0.055h-0.14c-0.133,0-0.25,0.027-0.35,0.08
		s-0.183,0.124-0.25,0.21c-0.066,0.087-0.117,0.185-0.15,0.295s-0.05,0.222-0.05,0.335c0,0.167,0.026,0.312,0.08,0.435
		c0.054,0.124,0.125,0.23,0.215,0.32c0.09,0.09,0.193,0.165,0.31,0.225s0.242,0.107,0.375,0.14l-0.5,1.31
		c-0.24-0.08-0.468-0.19-0.685-0.33s-0.407-0.315-0.57-0.525c-0.163-0.21-0.292-0.458-0.385-0.745s-0.14-0.61-0.14-0.97
		c0-0.38,0.054-0.716,0.16-1.01s0.253-0.542,0.44-0.745c0.187-0.203,0.408-0.358,0.665-0.465s0.535-0.16,0.835-0.16
		s0.573,0.05,0.82,0.15c0.247,0.1,0.479,0.235,0.695,0.405s0.421,0.368,0.615,0.595c0.193,0.227,0.39,0.464,0.59,0.71l1.02,1.3v-3.3
		H43.981z"/>
	<path fill="#FFFFFF" d="M44.101,26.358c0,0.914-0.317,1.59-0.95,2.03c-0.633,0.44-1.52,0.66-2.66,0.66
		c-1.14,0-2.026-0.22-2.66-0.66c-0.633-0.44-0.95-1.116-0.95-2.03c0-0.913,0.317-1.59,0.95-2.03c0.633-0.44,1.52-0.66,2.66-0.66
		c1.14,0,2.027,0.22,2.66,0.66C43.784,24.769,44.101,25.445,44.101,26.358z M42.831,26.358c0-0.4-0.146-0.677-0.44-0.83
		s-0.707-0.23-1.24-0.23h-1.32c-0.533,0-0.947,0.077-1.24,0.23c-0.293,0.153-0.44,0.43-0.44,0.83s0.147,0.677,0.44,0.83
		c0.293,0.153,0.707,0.23,1.24,0.23h1.32c0.534,0,0.947-0.077,1.24-0.23S42.831,26.758,42.831,26.358z"/>
</g>
</svg>
